<svg width="40" height="40" fill="none" xmlns="http://www.w3.org/2000/svg"><path d="M20 40c11.046 0 20-8.954 20-20S31.046 0 20 0 0 8.954 0 20s8.954 20 20 20z" fill="#8574B3"/><g clip-path="url(#clip0)"><path d="M27.282 23.733l-3.82-3.9 3.493-3.566c.947-.967.947-2.567 0-3.534a2.428 2.428 0 00-3.461 0L20 16.3l-3.494-3.567a2.428 2.428 0 00-3.461 0c-.947.967-.947 2.567 0 3.534l3.494 3.566-3.82 3.9c-.948.967-.948 2.567 0 3.534.49.5 1.11.733 1.73.733.62 0 1.24-.233 1.73-.733l3.821-3.9 3.82 3.9c.49.5 1.11.733 1.731.733.62 0 1.24-.233 1.73-.733.948-.967.948-2.567 0-3.534z" fill="#fff"/></g><defs><clipPath id="clip0"><path fill="#fff" transform="translate(12 12)" d="M0 0h16v16H0z"/></clipPath></defs></svg>