<svg width="28" height="25" fill="none" xmlns="http://www.w3.org/2000/svg"><g clip-path="url(#clip0)" fill="#133D67"><path d="M14.992 2.863H4.61a.594.594 0 00-.59.587v6.83c0 .32.269.588.59.588h10.382c.321 0 .59-.267.59-.587V3.44a.58.58 0 00-.59-.578zm-.58 6.83H5.2V4.029h9.211v5.666z"/><path d="M27.41 23.826h-9.836v-9.338h.956a1.56 1.56 0 011.563 1.574v1.627a3.104 3.104 0 003.11 3.095 3.104 3.104 0 003.108-3.095V8.45c0-.96-.357-1.877-1.018-2.588L20.719.658l-.885.765 3.556 4.038a2.349 2.349 0 00.393 4.669 2.372 2.372 0 001.358-.436v7.986c0 1.068-.867 1.93-1.939 1.93a1.933 1.933 0 01-1.938-1.93v-1.618a2.739 2.739 0 00-2.734-2.748h-.965V2.437C17.565 1.103 16.484 0 15.144 0h-10.9C2.904 0 1.84 1.112 1.84 2.437v21.389H.59a.594.594 0 00-.59.587c0 .32.268.587.59.587h26.83c.32 0 .589-.267.589-.587a.595.595 0 00-.599-.587zm-3.627-14.87a1.185 1.185 0 01-1.188-1.183c0-.65.536-1.183 1.188-1.183.661 0 1.188.534 1.188 1.183a1.19 1.19 0 01-1.188 1.183zm-7.38 14.87H3.03V2.436c0-.684.536-1.262 1.233-1.262h10.9c.687 0 1.241.587 1.241 1.263v21.389z"/></g><defs><clipPath id="clip0"><path fill="#fff" d="M0 0h28v25H0z"/></clipPath></defs></svg>