<svg width="1366" height="1771" fill="none" xmlns="http://www.w3.org/2000/svg"><mask id="a" maskUnits="userSpaceOnUse" x="0" y="0" width="1366" height="1771"><path fill="#C4C4C4" d="M0 0h1366v1771H0z"/></mask><g mask="url(#a)"><mask id="b" maskUnits="userSpaceOnUse" x="167" y="736" width="2000" height="1188"><path d="M167 750c0-7.18 5.82-13 13-13h1974c7.18 0 13 5.82 13 13v1161c0 7.18-5.82 13-13 13H180c-7.18 0-13-5.82-13-13V750z" fill="#18B6E0"/></mask><g mask="url(#b)"><path d="M2182.37 2565.57c-72.24-25.38-144.47-51.02-215.77-78.76-36.35-14.13-72.7-29.04-108.59-44.74-8.2-3.66-16.18-7.07-24.39-10.73-4.69-2.09-9.38-4.19-14.07-6.54-2.11-1.05-3.99-1.83-6.1-2.88-.7-.26-8.44-3.92-4.69-2.09 3.99 1.83-2.58-1.31-2.81-1.31-2.11-1.05-3.99-1.83-6.1-2.88-3.99-1.83-7.97-3.92-11.96-5.75-9.38-4.45-18.53-9.16-27.91-13.87-64.03-32.71-126.65-69.08-186.22-111.2-28.37-20.15-56.05-41.34-82.79-63.85-3.04-2.61-6.09-5.23-9.14-7.58 6.1 5.23-.71-.53-3.05-2.62-7.04-6.02-13.84-12.3-20.64-18.58a1281.858 1281.858 0 01-37.29-36.11c-24.39-24.59-47.61-50.76-69.66-77.97-11.02-13.6-21.81-27.47-32.13-41.86-2.34-3.4-4.69-6.54-7.03-9.94-5.16-7.59-1.17-1.57 0 0-1.17-1.57-2.35-3.41-3.52-4.98-4.92-7.32-9.85-14.65-14.54-22.24-19.47-30.61-37.53-62.53-53.47-95.76-8.68-18.05-16.19-36.37-23.69-54.95-2.11-5.23.23.53.47 1.57-.71-2.09-1.64-4.18-2.35-6.28-1.4-4.18-3.05-8.37-4.45-12.55-3.29-9.95-6.57-19.89-9.62-29.83-5.39-18.58-10.32-37.42-14.07-56.52-1.88-8.63-3.28-17.53-4.93-26.43-.93-5.23-1.64-10.2-2.34-15.43 0-.79-.94-8.11-.24-2.36.71 5.76-.23-3.4-.46-4.45a591.24 591.24 0 01-2.82-57.82c0-9.68.47-19.36.94-28.78.23-4.45.7-8.9.94-13.35.23-2.09.47-4.44.7-6.54-1.17 7.85.47-7.85 0 0 2.58-17.79 5.63-35.32 10.09-52.33 2.11-7.85 4.45-15.7 7.03-23.29.7-2.09 2.11-9.41 3.75-10.72 0 0-3.28 8.37-1.17 3.14.94-2.36 1.88-4.71 2.82-6.81 6.09-14.91 13.13-29.3 21.1-43.17 3.99-6.8 7.98-13.6 12.43-20.41 2.35-3.66 6.1-8.37 1.18-1.83 2.81-3.92 5.62-7.85 8.67-11.51 9.38-12.3 19.7-23.81 30.49-34.28 2.58-2.35 5.16-4.71 7.51-7.06 6.56-6.02-5.4 4.18 1.4-1.31 6.1-4.97 12.43-9.94 19-14.39 5.63-3.93 11.26-7.33 16.89-10.73 3.28-1.83 6.8-3.92 10.08-5.49.71-.26 4.22-1.57 4.46-2.36-.7 1.57-7.98 3.4-1.64.79 13.13-5.5 26.5-10.21 40.34-13.09 2.81-.52 7.03-.52 9.61-1.83-.23 0-8.91 1.05-3.75.53 2.11-.27 4.22-.53 6.57-.79 7.27-.52 14.54-.78 21.81-.78 3.75 0 7.5.26 11.25.52 2.58.26 4.93.52 7.51.78.94 0 7.04 1.05 1.41 0-5.4-.78 5.16 1.05 7.03 1.31 4.22.79 8.45 1.83 12.67 3.14 7.74 2.1 15.48 4.71 23.22 7.59 3.51 1.31 7.03 2.62 10.55 4.19 2.81 1.3 12.66 6.28 4.93 2.09 15.01 7.85 29.55 15.96 43.85 25.64 15.01 10.21 29.32 21.2 43.39 32.97 1.64 1.31 3.05 2.62 4.69 3.92-.47-.52-5.16-4.71-1.17-1.04 3.05 2.88 6.1 5.49 9.14 8.37 7.04 6.54 14.08 13.08 21.11 19.89 25.33 24.59 49.25 51.02 73.41 77.18 48.78 52.86 99.44 105.97 158.54 144.7 61.68 40.55 133.22 62.53 204.98 54.42 74.35-8.64 143.53-40.56 208.03-81.64 62.85-40.03 121.02-87.91 181.76-131.34 30.49-21.98 61.68-42.65 93.81-61.75 15.95-9.42 32.13-18.32 48.55-26.43 1.88-1.05 3.75-1.83 5.63-2.88.23-.26 6.57-3.14 2.35-1.05-4.46 2.1 1.87-.78 2.34-1.04 2.58-1.05 5.16-2.36 7.74-3.4 8.44-3.67 16.89-7.07 25.33-10.47 16.65-6.28 33.3-12.04 50.42-16.75 7.98-2.09 16.19-4.18 24.39-5.75 3.76-.79 7.51-1.57 11.26-2.36 1.88-.26 3.75-.78 5.63-1.04.94-.26 9.15-1.31 3.52-.53-5.4.79.94 0 1.64-.26l7.74-.78c3.75-.53 7.74-.79 11.49-1.05 8.21-.78 16.65-1.05 24.86-1.31 17.36-.26 34.48.79 51.6 2.62 8.91 1.05-5.63-1.05 3.28.52 3.75.79 7.51 1.31 11.26 2.1 8.68 1.83 17.35 3.92 26.03 6.54 7.27 2.09 14.54 4.44 21.81 7.32 3.52 1.31 7.27 2.88 10.79 4.19 2.35 1.05 4.69 2.09 7.04 3.14-3.99-1.57-4.22-2.09-.24 0 15.01 7.59 29.55 16.22 43.39 26.43 5.63 4.18 11.02 8.37 16.42 12.82 5.39 4.44 0-1.31-1.17-1.05.46 0 3.51 3.14 3.75 3.4 3.05 2.62 5.86 5.5 8.68 8.37 10.55 10.47 20.63 21.72 30.02 33.76 2.11 2.61 4.22 5.49 6.33 8.37 1.41 1.83 8.44 11.25 4.69 6.28-3.75-4.97 2.58 3.66 3.52 5.23 2.34 3.4 4.45 7.07 6.8 10.47 16.41 26.69 30.49 55.21 42.45 84.77 1.64 3.93 3.28 8.11 4.92 12.3 2.11 5.23-.94-2.88-1.17-3.14.94 1.31 1.41 3.66 1.88 5.23 3.05 8.38 5.86 16.75 8.67 25.12 5.16 15.7 9.85 31.92 14.31 47.88 8.91 32.45 16.18 65.42 22.52 98.65 6.09 32.18 11.49 64.62 16.18 97.33 3.75 25.9 33.54 42.39 54.88 34.8 25.09-9.16 35.18-33.75 31.19-61.23-20.17-136.84-48.55-281.53-121.72-396.66-38.7-60.96-88.65-113.55-150.1-144.43-67.31-34.01-141.66-46.31-215.06-38.46-155.5 16.74-287.07 110.68-413.25 205.92-30.02 22.76-60.27 45-91.7 65.67-15.95 10.47-31.89 20.41-48.55 29.57-7.73 4.45-15.71 8.63-23.68 12.56-1.88 1.04-13.84 6.8-5.87 2.88-4.22 2.09-8.67 3.92-12.89 5.75-16.42 7.07-33.31 13.08-50.66 17.79-8.21 2.36-16.42 4.19-24.63 5.76-1.88.26-3.75.52-5.63 1.05.47 0 7.51-1.05 2.35-.26-5.16.52-10.32 1.3-15.48 1.56-17.59 1.31-34.95.53-52.54-1.3 7.98.78-.7-.26-3.75-.79-4.45-.78-8.68-1.83-13.13-2.88-8.45-2.09-16.65-4.71-24.86-7.58-3.52-1.31-7.04-2.62-10.32-3.93-2.11-.78-13.84-6.28-4.69-1.83-7.98-3.66-15.72-7.85-23.22-12.3-14.31-8.37-27.91-17.53-41.28-27.73-6.8-4.97-13.37-10.47-19.93-15.7-1.41-1.31-3.05-2.62-4.46-3.93 1.41 1.31 6.8 5.76 0 0-3.52-3.14-7.04-6.28-10.32-9.42a922.082 922.082 0 01-38.93-37.94c-53.47-54.68-102.96-113.29-160.65-162.74-58.4-50.24-123.84-87.92-197.95-96.81-64.73-7.85-132.04 14.65-184.81 56.51-53.24 42.39-96.15 100.22-122.19 167.46-29.31 75.62-38.93 158.82-30.49 240.72 17.36 167.19 92.88 317.9 191.61 442.71 91.71 115.65 205.69 209.32 326.94 282.84 139.31 84.52 289.18 144.7 439.51 199.12 36.59 13.34 73.41 26.17 110.23 39.25 22.28 7.85 49.72-9.16 54.88-34.8 6.33-28-6.57-53.64-30.49-62.01z" fill="#004962"/></g><mask id="c" maskUnits="userSpaceOnUse" x="-8" y="13" width="1384" height="955"><path fill="#C4C4C4" d="M-8 13h1384v955H-8z"/></mask><g mask="url(#c)"><path d="M-855.382 1031.92c29.659-68.366 59.224-136.507 90.983-203.879 16.191-34.285 32.835-68.384 50.222-102.045 3.926-7.631 7.852-15.262 12.004-22.8 2.308-4.334 4.708-8.894 7.016-13.228 1.061-1.941 1.963-3.816 3.091-5.597.278-.678 4.244-7.765 2.467-4.401-2.122 3.882 1.247-2.393 1.406-2.46 1.062-1.941 2.189-3.722 3.091-5.597 2.189-3.722 4.152-7.538 6.341-11.261 4.934-8.801 9.935-17.443 14.936-26.085 34.956-59.722 73.501-117.575 116.369-171.806 20.425-25.945 41.954-51.04 64.427-75.22 2.588-2.766 5.017-5.466 7.606-8.233-5.177 5.533.664-.651 2.655-2.607 6-6.251 12.226-12.41 18.452-18.568 11.536-11.373 23.365-22.493 35.394-33.136 23.791-21.922 48.885-42.518 75.031-61.493 13.04-9.567 26.438-18.723 39.97-27.56 3.081-2.036 6.321-4.139 9.469-6.016 1.46-.984 7.184-4.312 0 0 1.62-1.051 3.147-1.876 4.767-2.928 6.866-4.179 13.958-8.266 21.05-12.353 28.912-16.387 58.716-31.088 89.453-43.557 16.643-6.768 33.686-12.579 50.57-18.324 4.755-1.612-.638.267-1.342.374 1.82-.573 3.866-1.054 5.686-1.627l11.597-3.162c8.914-2.414 18.12-4.576 27.168-6.672 16.82-3.659 33.745-6.613 50.845-8.704 7.813-1.018 15.758-1.718 23.545-2.351 4.517-.39 9.101-.62 13.845-.918.545-.04 7.215-.207 2.02-.095-5.196.112 3.016.05 3.946.036 16.97-.165 34.019.761 50.857 2.523 8.452.961 16.811 2.148 25.237 3.494 3.828.647 7.722 1.454 11.55 2.101 1.834.356 3.734.873 5.728 1.163 6.884 1.241-6.606-1.92 0 0 15.206 4.129 30.385 8.644 44.849 14.581a323.252 323.252 0 0119.834 8.934c1.649.809 8.096 2.795 8.987 4.482-.066-.16-7.086-3.966-2.685-1.499 1.941 1.061 3.882 2.122 5.73 3.409 12.432 7.348 24.492 15.599 35.889 24.503 5.585 4.405 11.145 9.196 16.478 13.894 2.992 2.68 6.743 6.729 1.529 1.42 3.033 3.225 6.159 6.225 9.192 9.45 9.75 10.34 18.837 21.332 26.941 33.109 1.836 2.603 3.739 5.364 5.416 8.033 4.79 6.984-3.168-5.789.985 1.461 3.82 6.453 7.321 13.04 10.729 19.852 2.783 5.764 5.407 11.594 7.711 17.558a121.572 121.572 0 013.851 10.559c.267.637.961 4.091 1.546 4.596-1.263-.783-2.307-8.209-.573-1.82 3.508 13.323 6.152 26.82 7.388 40.531.202 2.723-.312 6.869.594 9.486-.067-.159.058-8.823-.123-3.88-.065 2.086-.063 4.332-.127 6.418-.179 7.189-.743 14.351-1.534 21.42-.488 3.761-1.042 7.363-1.597 10.964l-1.428 7.336c-.211.837-1.627 6.858-.33 1.449 1.204-5.184-1.431 5.09-1.921 6.605-1.285 4.094-2.57 8.188-3.921 12.122-2.677 7.484-5.58 14.874-8.935 22.08-1.618 3.296-3.01 6.686-4.853 9.89-1.34 2.619-6.686 11.78-2.335 4.72-8.451 13.827-16.968 27.495-26.908 40.448-10.378 13.696-21.567 26.796-33.182 39.325-1.261 1.463-2.588 2.766-4.009 4.296.505-.585 4.58-4.722 1.009-1.171-2.814 2.674-5.403 5.441-8.151 8.274-6.319 6.384-12.864 12.676-19.475 18.808-24.295 22.508-49.735 43.621-75.107 64.895-51.317 42.971-102.99 87.777-142.908 141.898-41.869 56.621-68.392 124.427-68.335 195.353.032 73.553 21.03 143.973 50.476 210.853 28.646 64.97 64.81 126.42 96.897 189.77 16.11 31.83 31.264 64.06 44.571 97.25 6.7 16.48 12.696 33.07 18.281 50.02.639 1.98 1.279 3.96 1.852 5.78.134.32 2.093 6.8.773 2.3-1.32-4.51.64 1.97.614 2.36.747 2.68 1.427 5.21 2.174 7.89 2.44 8.53 4.494 17.03 6.616 25.69 3.976 16.68 7.155 33.7 9.405 50.73 1.15 8.13 1.916 16.24 2.681 24.34.283 3.82.566 7.63.782 11.28.028 1.86.283 3.82.311 5.68.014.93.235 9.07.15 3.49-.019-5.42.014.93-.039 1.7-.09 2.47.045 5.04-.045 7.51-.103 3.78-.046 7.5-.149 11.29-.324 8.19-.808 16.44-1.517 24.6-1.538 16.93-4.14 33.55-7.671 50.19-1.825 8.63 1.523-5.32-.755 3.12-.94 3.58-2.039 7.22-2.979 10.8-2.503 8.34-5.232 16.6-8.347 24.83-2.717 6.93-5.434 13.87-8.604 20.63-1.551 3.45-3.169 6.75-4.787 10.05-1.154 2.16-2.308 4.33-3.395 6.66 1.803-3.75 2.282-3.95.093-.23-8.159 14.08-17.195 27.4-27.494 39.94a417.903 417.903 0 01-12.862 14.93c-4.354 4.81 1.223.23 1.076-1.01.04.54-3 3.12-3.412 3.48-2.655 2.61-5.47 5.28-8.125 7.89-10.249 9.52-21.216 18.22-32.61 26.35-2.602 1.84-5.364 3.74-7.967 5.58-1.78 1.12-10.703 7.09-6.162 4.07 4.86-3.15-3.625 2.08-4.926 3-3.307 1.94-6.614 3.88-9.828 5.6-25.168 13.7-51.56 24.92-78.66 33.99-3.799 1.22-7.438 2.36-11.238 3.58-4.755 1.61 2.684-.75 2.843-.82-1.368.76-3.321 1.02-4.822 1.46a520.06 520.06 0 01-22.876 6.19c-14.414 3.59-28.802 6.79-43.39 9.52-29.427 5.74-58.976 9.85-88.858 13.17-28.859 3.07-57.891 5.28-86.898 7.1-23.013 1.38-40.619 29.15-36.027 50.44 5.326 25.29 25.948 37.46 50.437 36.02 121.832-7.29 251.762-22.09 359.974-83.03 57.32-32.19 108.489-76.41 141.813-133.76 36.481-62.8 54.961-134.17 55.488-206.84 1.71-152.72-67.244-289.95-137.788-422.03-16.907-31.5-33.335-63.2-48.17-95.56-7.63-16.47-14.623-33.21-21.071-49.98-3.011-8.1-6.022-16.2-8.648-24.28-.64-1.98-4.452-14.24-1.986-6.1-1.253-4.34-2.573-8.84-3.826-13.19-4.588-16.8-8.153-33.84-10.468-51.03a287.74 287.74 0 01-2.43-24.636c-.028-1.86-.123-3.88-.311-5.674.04.545.114 7.441.002 2.246-.045-5.036-.09-10.071.025-15.174.634-17.3 3.102-34.244 6.341-51.135-1.454 7.721.12-.611 1.1-3.642a235.53 235.53 0 013.947-12.507c2.637-8.028 5.725-15.871 9.2-23.688 1.458-3.23 3.076-6.527 4.534-9.757.995-2.101 6.924-13.002 2.082-4.427 4.06-7.312 8.503-14.598 13.081-21.565 8.717-13.19 18.246-25.783 28.519-37.939 5.136-6.077 10.5-12.062 15.862-18.047 1.327-1.304 2.588-2.767 3.756-4.004-5.681 6.119-1.168 1.237 0 0 3-3.125 6.16-6.318 9.226-9.284 12.041-11.958 24.507-23.345 37.2-34.639 53.239-47.332 109.751-90.416 159.039-142.274 49.952-52.511 89.544-113.235 104.941-184.816 13.094-62.755.284-130.598-31.263-185.932-31.747-55.811-78.156-103.25-134.33-134.627C160.393 58.957 88.461 41.84 15.842 42.795c-148.388 1.54-288.08 61.972-407.536 147.084-110.759 79.043-204.273 182.33-280.942 294.116-88.028 128.513-156.164 269.681-219.09 411.667a17622.406 17622.406 0 00-45.569 104.219c-9.175 21.059 3.065 49.449 24.865 56.819 23.382 8.01 47.157-2.3 57.048-24.78z" fill="#8574B3"/></g></g></svg>