<svg width="91" height="61" fill="none" xmlns="http://www.w3.org/2000/svg"><path d="M88.641 8.563c-.114-.266-.342-.456-.609-.57-.266-.115-.57-.077-.837.038a1.082 1.082 0 00-.495 1.446 13.168 13.168 0 011.294 5.67c0 7.194-5.86 13.017-13.016 13.017-7.155 0-13.055-5.785-13.055-12.978S67.785 2.169 74.94 2.169c2.969 0 5.785.99 8.107 2.817.228.19.494.266.799.228.304-.038.57-.19.723-.418.19-.229.266-.533.228-.8-.038-.304-.19-.533-.418-.723C81.714 1.142 78.365 0 74.939 0c-8.41 0-15.223 6.813-15.223 15.224 0 8.411 6.813 15.224 15.224 15.224 8.411 0 15.224-6.813 15.224-15.224 0-2.36-.495-4.605-1.523-6.66z" fill="#00AF99"/><path d="M18.687 60.096c-5.29 0-9.629-4.3-9.629-9.629 0-5.328 4.301-9.629 9.63-9.629 5.328 0 9.629 4.3 9.629 9.63 0 5.328-4.34 9.628-9.63 9.628zm0-17.127c-4.11 0-7.46 3.35-7.46 7.46 0 4.11 3.35 7.46 7.46 7.46 4.11 0 7.46-3.35 7.46-7.46 0-4.11-3.35-7.46-7.46-7.46zM68.051 60.096c-5.29 0-9.63-4.3-9.63-9.629 0-5.328 4.302-9.629 9.63-9.629 5.29 0 9.63 4.3 9.63 9.63 0 5.328-4.302 9.628-9.63 9.628zm0-17.127c-4.11 0-7.46 3.35-7.46 7.46 0 4.11 3.35 7.46 7.46 7.46 4.11 0 7.46-3.35 7.46-7.46.038-4.11-3.311-7.46-7.46-7.46zM53.55 55.796H33.188a1.064 1.064 0 01-1.065-1.066c0-.57.494-1.066 1.065-1.066h20.324c.61 0 1.066.495 1.066 1.066 0 .57-.457 1.066-1.028 1.066zM38.174 34.977h-7.041a1.064 1.064 0 01-1.066-1.066c0-.57.495-1.065 1.066-1.065h7.003c.609 0 1.066.495 1.066 1.065 0 .571-.457 1.066-1.028 1.066zM22.493 30.181h-8.182c-1.941 0-2.779-1.484-2.97-2.283l-.037-.267v-2.93c0-7.232 5.823-9.287 8.906-9.363h5.823v14.463l-.913.152c-1.409.19-2.398.229-2.627.229zm-9.058-2.702c.076.19.305.533.838.533h8.144c.038 0 .571 0 1.447-.076V17.508H20.21c-.267 0-6.813.266-6.813 7.23v2.741h.038zM32.541 30.181c-.228 0-1.218 0-2.626-.228l-.913-.152V15.338h11.303c.305 0 7.727-.038 12.865 4.834.228.228 5.785 5.518 5.785 7.612 0 1.408-1.104 2.207-2.093 2.36H32.579c0 .038 0 .038-.038.038zm-1.408-2.245c.875.076 1.408.076 1.446.076h24.016c.076-.038.19-.076.228-.19-.228-.761-2.511-3.578-5.138-6.09-4.415-4.186-10.999-4.262-11.342-4.262h-9.21v10.466z" fill="#133D67"/><path d="M18.687 53.74c1.79 0 3.273-1.484 3.273-3.273 0-1.788-1.484-3.273-3.273-3.273-1.789 0-3.273 1.485-3.273 3.273a3.273 3.273 0 003.273 3.274zM68.051 53.74c1.789 0 3.273-1.484 3.273-3.273 0-1.788-1.484-3.273-3.273-3.273-1.789 0-3.273 1.485-3.273 3.273 0 1.79 1.484 3.274 3.273 3.274z" fill="#00AF99"/><path d="M79.507 32.693c-.076-.038-.152-.114-.228-.152.076.038.152.114.228.152zM82.476 32.541l-.761-.761c.266.228.532.495.76.761z" fill="#004962"/><path d="M88.451 45.405v5.633c0 2.36-1.941 4.301-4.3 4.301h-3.198a1.064 1.064 0 01-1.065-1.066c0-.609.494-1.065 1.065-1.065h3.197c1.18 0 2.132-.952 2.132-2.17v-5.29l-1.599-2.208c-.457-.608-.875-1.598-1.028-2.36l-.685-3.577c-.342-1.636-1.75-3.616-3.425-4.948a.795.795 0 00-.228-.152 1.187 1.187 0 01-.343-.8c0-.228.076-.418.19-.608a1.12 1.12 0 01.952-.533c.266 0 .533.114.723.266l.114.115.761.799.762.761c1.294 1.446 2.283 3.121 2.588 4.72l.723 3.577c.076.419.418 1.142.647 1.484l1.827 2.474c.114.229.19.419.19.647zM59.107 17.317c0 .267-.114.533-.267.723-.19.229-.494.343-.799.343-.19 0-.418-.038-.57-.152l-.229-.19-1.408-1.143c-2.55-2.093-7.498-3.843-10.81-3.843h-.075c-.153 0-16.062-1.066-30.296-.343-3.083.152-6.051 2.778-6.584 5.785l-1.56 8.754c-.23 1.294-.838 3.197-1.409 4.339l-2.093 4.415c-.457.913-.838 2.588-.838 3.615v4.72c0 2.055.077 3.882.153 5.252.076 1.37.228 2.322.304 2.588 0 0 .419.685 2.131.685.647 0 1.18.571 1.066 1.256-.076.533-.57.913-1.142.913C1.484 54.997.685 53.17.61 52.98.152 51.837 0 47.194 0 44.34V39.62c0-1.332.457-3.387 1.028-4.567l2.093-4.339c.457-.99 1.028-2.702 1.218-3.768l1.56-8.753c.723-4.035 4.491-7.384 8.602-7.574 14.044-.723 29.687.266 30.524.342 3.844 0 9.134 1.903 12.103 4.339l1.446 1.18c.343.114.533.457.533.837zM76.348 6.584a1.105 1.105 0 00-2.207 0v8.983c0 .608.494 1.103 1.103 1.103h6.432a1.105 1.105 0 000-2.207h-5.328V6.584z" fill="#133D67"/></svg>