<svg width="32" height="32" fill="none" xmlns="http://www.w3.org/2000/svg"><path d="M16.023 0c8.936.034 16 7.304 15.977 16.028C31.977 24.98 24.698 32.034 15.977 32 7.03 31.977-.023 24.696 0 15.983.023 7.032 7.302-.011 16.023 0zM16 23.991h5.723c.511 0 .795-.272.795-.783 0-.41 0-.83-.057-1.239-.318-2.249-1.499-3.907-3.497-4.964a6.07 6.07 0 00-3.804-.659c-2.249.319-3.895 1.5-4.974 3.488-.545 1.01-.75 2.101-.727 3.249.012.659.25.908.897.908H16zM16 7.01c-2.226.011-3.974 1.795-3.963 4.032.011 2.136 1.805 3.908 3.952 3.908 2.225 0 3.985-1.783 3.985-4.021-.022-2.147-1.816-3.92-3.974-3.92z" fill="#133D67"/></svg>