<svg width="40" height="40" viewBox="0 0 40 40" fill="none" xmlns="http://www.w3.org/2000/svg">
<path d="M20 40C31.0457 40 40 31.0457 40 20C40 8.9543 31.0457 0 20 0C8.9543 0 0 8.9543 0 20C0 31.0457 8.9543 40 20 40Z" fill="#00AF99"/>
<path d="M19.1111 28.2223C19.0667 28.2223 19.0667 28.2223 19.0222 28.2223C18.1333 28.2223 17.2445 27.8223 16.6222 27.1556L11.7333 21.8223C10.4889 20.4445 10.5778 18.3556 11.9556 17.1112C13.3333 15.8667 15.4222 15.9556 16.6667 17.3334L19.2 20.089L25.6445 13.6445C26.9333 12.3556 29.0667 12.3556 30.3556 13.6445C31.6445 14.9334 31.6445 17.0667 30.3556 18.3556L21.4667 27.2445C20.8445 27.8667 20 28.2223 19.1111 28.2223Z" fill="white"/>
</svg>
