<svg width="91" height="61" viewBox="0 0 91 61" fill="none" xmlns="http://www.w3.org/2000/svg">
<path d="M88.6413 8.56346C88.5272 8.29704 88.2988 8.10674 88.0324 7.99256C87.766 7.87838 87.4615 7.91644 87.1951 8.03062C86.6622 8.29704 86.4339 8.94406 86.7003 9.4769C87.5376 11.2276 87.9943 13.1687 87.9943 15.1478C87.9943 22.3411 82.1331 28.1643 74.9779 28.1643C67.8226 28.1643 61.9234 22.3792 61.9234 15.1859C61.9234 7.99256 67.7846 2.16941 74.9398 2.16941C77.9085 2.16941 80.7249 3.15897 83.0466 4.98584C83.2749 5.17614 83.5413 5.25226 83.8458 5.2142C84.1503 5.17614 84.4167 5.0239 84.569 4.79554C84.7592 4.56718 84.8354 4.2627 84.7973 3.99628C84.7592 3.6918 84.607 3.46344 84.3787 3.27314C81.7145 1.14179 78.3652 0 74.9398 0C66.5286 0 59.7159 6.81271 59.7159 15.2239C59.7159 23.6352 66.5286 30.4479 74.9398 30.4479C83.351 30.4479 90.1637 23.6352 90.1637 15.2239C90.1637 12.8642 89.669 10.6187 88.6413 8.56346Z" fill="#1BAF99"/>
<path d="M18.6874 60.0964C13.3971 60.0964 9.05829 55.7956 9.05829 50.4673C9.05829 45.1389 13.359 40.8381 18.6874 40.8381C24.0158 40.8381 28.3166 45.1389 28.3166 50.4673C28.3166 55.7956 23.9777 60.0964 18.6874 60.0964ZM18.6874 42.9695C14.577 42.9695 11.2277 46.3188 11.2277 50.4292C11.2277 54.5397 14.577 57.8889 18.6874 57.8889C22.7979 57.8889 26.1472 54.5397 26.1472 50.4292C26.1472 46.3188 22.7979 42.9695 18.6874 42.9695Z" fill="#133D67"/>
<path d="M68.051 60.0964C62.7607 60.0964 58.4218 55.7956 58.4218 50.4673C58.4218 45.1389 62.7226 40.8381 68.051 40.8381C73.3413 40.8381 77.6801 45.1389 77.6801 50.4673C77.6801 55.7956 73.3794 60.0964 68.051 60.0964ZM68.051 42.9695C63.9405 42.9695 60.5913 46.3188 60.5913 50.4292C60.5913 54.5397 63.9405 57.8889 68.051 57.8889C72.1614 57.8889 75.5107 54.5397 75.5107 50.4292C75.5488 46.3188 72.1995 42.9695 68.051 42.9695Z" fill="#133D67"/>
<path d="M53.5502 55.7957H33.1882C32.5793 55.7957 32.1226 55.3009 32.1226 54.73C32.1226 54.1591 32.6173 53.6643 33.1882 53.6643H53.5122C54.1211 53.6643 54.5779 54.1591 54.5779 54.73C54.5779 55.3009 54.1211 55.7957 53.5502 55.7957Z" fill="#133D67"/>
<path d="M38.174 34.9771H31.1329C30.524 34.9771 30.0673 34.4823 30.0673 33.9114C30.0673 33.3405 30.562 32.8457 31.1329 32.8457H38.1359C38.7449 32.8457 39.2016 33.3405 39.2016 33.9114C39.2016 34.4823 38.7449 34.9771 38.174 34.9771Z" fill="#004962"/>
<path d="M22.4934 30.1815C22.4554 30.1815 22.4554 30.1815 22.4554 30.1815H14.3106C12.3695 30.1815 11.5322 28.6971 11.3419 27.8979L11.3038 27.6315V24.7009C11.3038 17.4695 17.127 15.4143 20.2098 15.3381H26.033V29.8009L25.1196 29.9531C23.7113 30.1434 22.7218 30.1815 22.4934 30.1815ZM13.4352 27.4792C13.5113 27.6695 13.7397 28.0121 14.2725 28.0121H22.4173C22.4554 28.0121 22.9882 28.0121 23.8636 27.9359V17.5075H20.2098C19.9434 17.5075 13.3971 17.774 13.3971 24.7389V27.4792H13.4352Z" fill="#133D67"/>
<path d="M32.5413 30.1815C32.3129 30.1815 31.3234 30.1815 29.9151 29.9531L29.0017 29.8009V15.3381H40.3055C40.61 15.3381 48.0316 15.3001 53.1697 20.1717C53.3981 20.4001 58.9548 25.6904 58.9548 27.7837C58.9548 29.1919 57.8511 29.9912 56.8615 30.1434H56.7093H32.5793C32.5793 30.1815 32.5793 30.1815 32.5413 30.1815ZM31.1331 27.9359C32.0084 28.0121 32.5413 28.0121 32.5793 28.0121H56.5951C56.6712 27.974 56.7854 27.9359 56.8234 27.8218C56.5951 27.0606 54.3115 24.2441 51.6854 21.7322C47.2704 17.5456 40.6861 17.4695 40.3435 17.4695H31.1331V27.9359Z" fill="#133D67"/>
<path d="M18.6874 53.7406C20.4762 53.7406 21.9605 52.2563 21.9605 50.4675C21.9605 48.6787 20.4762 47.1943 18.6874 47.1943C16.8986 47.1943 15.4142 48.6787 15.4142 50.4675C15.4142 52.2563 16.8605 53.7406 18.6874 53.7406Z" fill="#1BAF99"/>
<path d="M68.051 53.7406C69.8398 53.7406 71.3242 52.2563 71.3242 50.4675C71.3242 48.6787 69.8398 47.1943 68.051 47.1943C66.2622 47.1943 64.7779 48.6787 64.7779 50.4675C64.7779 52.2563 66.2622 53.7406 68.051 53.7406Z" fill="#1BAF99"/>
<path d="M78.3652 19.9813C77.6421 20.4761 76.8809 20.7045 76.0436 20.7045C74.2928 20.7045 72.7704 19.5627 71.9331 17.85H75.0921C75.6249 17.85 76.0436 17.4313 76.0436 16.8985C76.0436 16.3656 75.6249 15.947 75.0921 15.947H71.3622C71.3242 15.6425 71.2861 15.338 71.2861 14.9955C71.2861 14.6529 71.3242 14.3485 71.3622 14.044H76.0436C76.5764 14.044 76.9951 13.6253 76.9951 13.0925C76.9951 12.5597 76.5764 12.141 76.0436 12.141H71.9712C72.8085 10.4283 74.3309 9.28651 76.0817 9.28651C76.919 9.28651 77.6802 9.51487 78.4033 10.0096C78.822 10.3141 79.4309 10.1999 79.7354 9.74323C80.0399 9.32457 79.9257 8.71561 79.469 8.41113C78.4414 7.72606 77.2615 7.34546 76.0817 7.34546C73.3033 7.34546 70.9055 9.32457 69.916 12.1029H68.4697C67.9368 12.1029 67.5182 12.5216 67.5182 13.0544C67.5182 13.5873 67.9368 14.0059 68.4697 14.0059H69.4973C69.4592 14.3104 69.4212 14.6149 69.4212 14.9574C69.4212 15.3 69.4592 15.6044 69.4973 15.9089H68.4697C67.9368 15.9089 67.5182 16.3276 67.5182 16.8604C67.5182 17.3933 67.9368 17.8119 68.4697 17.8119H69.916C70.9055 20.5903 73.3033 22.5694 76.0817 22.5694C77.2996 22.5694 78.4414 22.1888 79.469 21.5037C79.8876 21.1992 80.0018 20.6283 79.7354 20.1716C79.3929 19.791 78.822 19.6768 78.3652 19.9813Z" fill="#133D67"/>
<path d="M79.507 32.6933C79.4309 32.6552 79.3548 32.5791 79.2787 32.541C79.3548 32.5791 79.4309 32.6552 79.507 32.6933Z" fill="#004962"/>
<path d="M82.4757 32.541L81.7145 31.7798C81.981 32.0081 82.2474 32.2746 82.4757 32.541Z" fill="#004962"/>
<path d="M88.4511 45.4053V51.0382C88.4511 53.3979 86.51 55.339 84.1503 55.339H80.9533C80.3443 55.339 79.8876 54.8442 79.8876 54.2733C79.8876 53.6643 80.3824 53.2076 80.9533 53.2076H84.1503C85.3301 53.2076 86.2816 52.2561 86.2816 51.0382V45.7479L84.6831 43.5404C84.2264 42.9315 83.8078 41.9419 83.6555 41.1807L82.9704 37.6031C82.6279 35.9665 81.2197 33.9874 79.545 32.6553C79.4689 32.5792 79.3928 32.5411 79.3167 32.5031C79.1264 32.3128 78.9742 32.0083 78.9742 31.7038C78.9742 31.4754 79.0503 31.2851 79.1645 31.0948C79.3547 30.7904 79.6973 30.562 80.1159 30.562C80.3824 30.562 80.6488 30.6762 80.8391 30.8284L80.9533 30.9426L81.7145 31.7419L82.4757 32.5031C83.7697 33.9493 84.7592 35.624 85.0637 37.2225L85.7869 40.8001C85.863 41.2188 86.2055 41.9419 86.4339 42.2844L88.2608 44.7583C88.3749 44.9867 88.4511 45.177 88.4511 45.4053Z" fill="#133D67"/>
<path d="M59.1069 17.3172C59.1069 17.5836 58.9927 17.85 58.8405 18.0403C58.6502 18.2687 58.3457 18.3829 58.0412 18.3829C57.8509 18.3829 57.6226 18.3448 57.4703 18.2306L57.242 18.0403L55.8338 16.8985C53.2838 14.8052 48.336 13.0545 45.0248 13.0545C44.9867 13.0545 44.9867 13.0545 44.9487 13.0545C44.7964 13.0545 28.8874 11.9888 14.653 12.7119C11.5702 12.8642 8.60152 15.4903 8.06868 18.497L6.50823 27.2508C6.27987 28.5448 5.67091 30.4478 5.10002 31.5896L3.00673 36.0046C2.55001 36.918 2.16941 38.5926 2.16941 39.6202V44.3397C2.16941 46.3949 2.24553 48.2218 2.32165 49.5919C2.39777 50.9621 2.55001 51.9136 2.62613 52.18C2.62613 52.18 3.04479 52.8651 4.75748 52.8651C5.4045 52.8651 5.93733 53.436 5.82315 54.121C5.74703 54.6539 5.25226 55.0345 4.68136 55.0345C1.48433 54.9964 0.685077 53.1695 0.608957 52.9793C0.152239 51.8375 0 47.1942 0 44.3397V39.6202C0 38.2882 0.456718 36.2329 1.02762 35.0531L3.12091 30.7142C3.57762 29.7247 4.14852 28.012 4.33882 26.9463L5.89927 18.1926C6.62241 14.1582 10.3903 10.809 14.5008 10.6187C28.5449 9.89552 44.1875 10.8851 45.0248 10.9612C48.8688 10.9612 54.1591 12.8642 57.1278 15.3L58.5741 16.4799C58.9166 16.5941 59.1069 16.9366 59.1069 17.3172Z" fill="#133D67"/>
</svg>
