<svg width="40" height="40" viewBox="0 0 40 40" fill="none" xmlns="http://www.w3.org/2000/svg">
<path d="M20 40C31.0457 40 40 31.0457 40 20C40 8.9543 31.0457 0 20 0C8.9543 0 0 8.9543 0 20C0 31.0457 8.9543 40 20 40Z" fill="#8574B3"/>
<g clip-path="url(#clip0)">
<path d="M27.2816 23.7334L23.4612 19.8334L26.9551 16.2668C27.902 15.3001 27.902 13.7001 26.9551 12.7334C26.0081 11.7668 24.4408 11.7668 23.4939 12.7334L20 16.3001L16.5061 12.7334C15.5592 11.7668 13.9918 11.7668 13.0449 12.7334C12.0979 13.7001 12.0979 15.3001 13.0449 16.2668L16.5388 19.8334L12.7184 23.7334C11.7714 24.7001 11.7714 26.3001 12.7184 27.2668C13.2081 27.7668 13.8286 28.0001 14.449 28.0001C15.0694 28.0001 15.6898 27.7668 16.1796 27.2668L20 23.3668L23.8204 27.2668C24.3102 27.7668 24.9306 28.0001 25.551 28.0001C26.1714 28.0001 26.7918 27.7668 27.2816 27.2668C28.2286 26.3001 28.2286 24.7001 27.2816 23.7334Z" fill="white"/>
</g>
<defs>
<clipPath id="clip0">
<rect width="16" height="16" fill="white" transform="translate(12 12)"/>
</clipPath>
</defs>
</svg>
