<svg width="19" height="19" viewBox="0 0 19 19" fill="none" xmlns="http://www.w3.org/2000/svg">
<path d="M3.65315 0.368652C1.83246 0.368652 0.366455 1.83466 0.366455 3.65534V15.082C0.366455 16.9027 1.83246 18.3687 3.65315 18.3687H9.84628V11.3318H7.98553V8.79829H9.84628V6.63379C9.84628 4.93324 10.9457 3.37184 13.4783 3.37184C14.5038 3.37184 15.262 3.47029 15.262 3.47029L15.2024 5.83617C15.2024 5.83617 14.4291 5.82886 13.5852 5.82886C12.6719 5.82886 12.5255 6.24967 12.5255 6.94825V8.7983H15.275L15.1551 11.3318H12.5255V18.3687H15.0798C16.9004 18.3687 18.3665 16.9027 18.3665 15.082V3.65536C18.3665 1.83468 16.9004 0.36867 15.0798 0.36867H3.65313L3.65315 0.368652Z" fill="#2B9749"/>
</svg>
