<svg width="28" height="25" viewBox="0 0 28 25" fill="none" xmlns="http://www.w3.org/2000/svg">
<g clip-path="url(#clip0)">
<path d="M14.9918 2.86328H4.61017C4.28854 2.86328 4.02051 3.13009 4.02051 3.45026V10.2806C4.02051 10.6007 4.28854 10.8675 4.61017 10.8675H14.9918C15.3134 10.8675 15.5815 10.6007 15.5815 10.2806V3.44137C15.5815 3.1212 15.3224 2.86328 14.9918 2.86328ZM14.4111 9.69359H5.19983V4.02835H14.4111V9.69359Z" fill="#133D67"/>
<path d="M27.4103 23.826H17.5737V14.4877H18.5297C19.3963 14.4877 20.1021 15.1903 20.0932 16.0619C20.0932 16.0708 20.0932 16.0708 20.0932 16.0708V17.6894C20.0932 19.397 21.4869 20.7844 23.2023 20.7844C24.9177 20.7844 26.3114 19.397 26.3114 17.6894V8.44895C26.3114 7.48844 25.9541 6.57239 25.2929 5.8609L20.7186 0.658129L19.8341 1.42298L23.3899 5.46069C22.1034 5.67414 21.2368 6.88367 21.4512 8.16435C21.6388 9.29385 22.6216 10.1298 23.783 10.1298C24.2744 10.121 24.7479 9.97865 25.141 9.69406V17.6805C25.141 18.7478 24.2744 19.6105 23.2023 19.6105C22.1302 19.6105 21.2636 18.7478 21.2636 17.6805V16.0619C21.2725 14.55 20.0396 13.3138 18.5297 13.3138H18.5207H17.5648V2.43686C17.5648 1.10281 16.4837 0 15.1436 0H4.24378C2.90364 0 1.84046 1.1117 1.84046 2.43686V23.826H0.589662C0.268028 23.826 0 24.0928 0 24.413C0 24.7332 0.268028 25 0.589662 25H27.4193C27.7409 25 28.0089 24.7332 28.0089 24.413C28.0089 24.0928 27.7409 23.826 27.4103 23.826ZM23.783 8.95589C23.1219 8.95589 22.5948 8.42227 22.5948 7.77303C22.5948 7.1238 23.1308 6.59018 23.783 6.59018C24.4442 6.59018 24.9713 7.1238 24.9713 7.77303C24.9713 8.42227 24.4352 8.95589 23.783 8.95589ZM16.4033 23.826H3.02872V2.43686C3.02872 1.75205 3.56477 1.17396 4.26165 1.17396H15.1615C15.8494 1.17396 16.4033 1.76094 16.4033 2.43686V23.826Z" fill="#133D67"/>
</g>
<defs>
<clipPath id="clip0">
<rect width="28" height="25" fill="white"/>
</clipPath>
</defs>
</svg>
