<svg width="187" height="42" viewBox="0 0 187 42" fill="none" xmlns="http://www.w3.org/2000/svg">
<line x1="66.6755" y1="-2.18557e-08" x2="66.6755" y2="41.8351" stroke="white"/>
<path d="M79.8064 17.8457H84.4564V16.7157H81.0114V14.6807H83.8564V13.5507H81.0114V11.7757H84.4564V10.6457H79.8064V17.8457ZM85.346 17.8457H86.561V14.5207C86.561 14.184 86.6527 13.9107 86.836 13.7007C87.0227 13.4907 87.2693 13.3857 87.576 13.3857C87.8927 13.3857 88.1427 13.4907 88.326 13.7007C88.5093 13.9107 88.601 14.204 88.601 14.5807V17.8457H89.801V14.5207C89.801 14.164 89.8977 13.8857 90.091 13.6857C90.2877 13.4857 90.531 13.3857 90.821 13.3857C91.131 13.3857 91.3777 13.4907 91.561 13.7007C91.7477 13.9074 91.841 14.1957 91.841 14.5657V17.8457H93.046V14.2607C93.046 13.674 92.886 13.2024 92.566 12.8457C92.2493 12.489 91.7927 12.3107 91.196 12.3107C90.846 12.3107 90.526 12.3874 90.236 12.5407C89.946 12.694 89.7177 12.904 89.551 13.1707C89.4077 12.9074 89.2043 12.699 88.941 12.5457C88.6777 12.389 88.356 12.3107 87.976 12.3107C87.6527 12.3107 87.3543 12.3757 87.081 12.5057C86.811 12.6324 86.5877 12.8074 86.411 13.0307V12.4457H85.346V17.8457ZM94.0401 20.2457H95.2551V17.5707C95.4385 17.704 95.6451 17.8074 95.8751 17.8807C96.1085 17.9574 96.3651 17.9957 96.6451 17.9957C97.1451 17.9957 97.5785 17.8707 97.9451 17.6207C98.3151 17.3707 98.6018 17.0307 98.8051 16.6007C99.0085 16.1707 99.1101 15.6857 99.1101 15.1457C99.1101 14.599 99.0068 14.1107 98.8001 13.6807C98.5968 13.2507 98.3068 12.9124 97.9301 12.6657C97.5535 12.419 97.1101 12.2957 96.6001 12.2957C96.2935 12.2957 96.0151 12.3424 95.7651 12.4357C95.5151 12.529 95.2951 12.6624 95.1051 12.8357V12.4457H94.0401V20.2457ZM96.4601 16.9157C95.9768 16.9157 95.6301 16.7524 95.4201 16.4257C95.2101 16.0957 95.1051 15.669 95.1051 15.1457C95.1051 14.619 95.2085 14.1924 95.4151 13.8657C95.6251 13.539 95.9601 13.3757 96.4201 13.3757C96.7435 13.3757 97.0085 13.4557 97.2151 13.6157C97.4251 13.7724 97.5801 13.9857 97.6801 14.2557C97.7835 14.5224 97.8351 14.819 97.8351 15.1457C97.8351 15.4757 97.7851 15.774 97.6851 16.0407C97.5885 16.3074 97.4385 16.5207 97.2351 16.6807C97.0318 16.8374 96.7735 16.9157 96.4601 16.9157ZM99.9122 17.8457H101.122V15.1007C101.122 14.7874 101.179 14.509 101.292 14.2657C101.409 14.0224 101.591 13.834 101.837 13.7007C102.004 13.604 102.191 13.5474 102.397 13.5307C102.604 13.5107 102.789 13.524 102.952 13.5707V12.4457C102.709 12.409 102.459 12.414 102.202 12.4607C101.946 12.504 101.717 12.594 101.517 12.7307C101.404 12.8007 101.302 12.8857 101.212 12.9857C101.122 13.0824 101.044 13.1907 100.977 13.3107V12.4457H99.9122V17.8457ZM105.964 17.9957C106.484 17.9957 106.959 17.8624 107.389 17.5957C107.822 17.3257 108.142 16.9457 108.349 16.4557L107.159 16.0957C106.919 16.609 106.497 16.8657 105.894 16.8657C105.484 16.8657 105.16 16.7474 104.924 16.5107C104.687 16.2707 104.545 15.9274 104.499 15.4807H108.409C108.455 14.8307 108.384 14.2674 108.194 13.7907C108.004 13.314 107.712 12.9457 107.319 12.6857C106.929 12.4257 106.454 12.2957 105.894 12.2957C105.364 12.2957 104.897 12.4157 104.494 12.6557C104.09 12.8924 103.775 13.229 103.549 13.6657C103.322 14.1024 103.209 14.6157 103.209 15.2057C103.209 15.7524 103.324 16.2357 103.554 16.6557C103.787 17.0757 104.11 17.404 104.524 17.6407C104.937 17.8774 105.417 17.9957 105.964 17.9957ZM105.944 13.3507C106.317 13.3507 106.604 13.449 106.804 13.6457C107.007 13.839 107.135 14.1474 107.189 14.5707H104.529C104.672 13.7574 105.144 13.3507 105.944 13.3507ZM111.309 17.9957C112.006 17.9957 112.551 17.8407 112.944 17.5307C113.341 17.2207 113.539 16.794 113.539 16.2507C113.539 15.8307 113.406 15.5007 113.139 15.2607C112.876 15.0207 112.421 14.8174 111.774 14.6507C111.354 14.544 111.038 14.454 110.824 14.3807C110.614 14.3074 110.474 14.234 110.404 14.1607C110.334 14.0874 110.299 13.999 110.299 13.8957C110.299 13.7157 110.386 13.5757 110.559 13.4757C110.733 13.3724 110.961 13.3274 111.244 13.3407C111.538 13.3574 111.773 13.4324 111.949 13.5657C112.129 13.699 112.236 13.8807 112.269 14.1107L113.499 13.8907C113.433 13.404 113.194 13.0174 112.784 12.7307C112.374 12.4407 111.854 12.2957 111.224 12.2957C110.581 12.2957 110.066 12.4457 109.679 12.7457C109.293 13.0457 109.099 13.449 109.099 13.9557C109.099 14.359 109.234 14.6774 109.504 14.9107C109.778 15.144 110.253 15.349 110.929 15.5257C111.336 15.6324 111.636 15.7224 111.829 15.7957C112.026 15.8657 112.154 15.9374 112.214 16.0107C112.274 16.084 112.304 16.1824 112.304 16.3057C112.304 16.5057 112.224 16.664 112.064 16.7807C111.904 16.894 111.681 16.9507 111.394 16.9507C111.064 16.9507 110.789 16.874 110.569 16.7207C110.353 16.5674 110.214 16.3574 110.154 16.0907L108.924 16.2807C109.014 16.824 109.268 17.2457 109.684 17.5457C110.101 17.8457 110.643 17.9957 111.309 17.9957ZM115.845 17.9957C116.275 17.9957 116.64 17.9257 116.94 17.7857C117.243 17.6424 117.51 17.4207 117.74 17.1207V17.8457H118.795V14.5307C118.795 14.2974 118.785 14.0824 118.765 13.8857C118.745 13.6857 118.686 13.4907 118.59 13.3007C118.413 12.944 118.141 12.6874 117.775 12.5307C117.411 12.374 116.99 12.2957 116.51 12.2957C115.876 12.2957 115.371 12.434 114.995 12.7107C114.618 12.9874 114.363 13.354 114.23 13.8107L115.33 14.1557C115.42 13.879 115.578 13.684 115.805 13.5707C116.031 13.4574 116.266 13.4007 116.51 13.4007C116.876 13.4007 117.146 13.4757 117.32 13.6257C117.493 13.7724 117.591 14.0007 117.615 14.3107C117.141 14.3807 116.701 14.449 116.295 14.5157C115.891 14.579 115.548 14.6574 115.265 14.7507C114.838 14.8974 114.526 15.1057 114.33 15.3757C114.133 15.6424 114.035 15.9724 114.035 16.3657C114.035 16.6624 114.103 16.934 114.24 17.1807C114.38 17.4274 114.585 17.6257 114.855 17.7757C115.125 17.9224 115.455 17.9957 115.845 17.9957ZM116.085 17.0357C115.801 17.0357 115.585 16.9707 115.435 16.8407C115.288 16.7107 115.215 16.5474 115.215 16.3507C115.215 16.174 115.271 16.0307 115.385 15.9207C115.501 15.8107 115.663 15.7174 115.87 15.6407C116.06 15.5774 116.288 15.5224 116.555 15.4757C116.821 15.4257 117.17 15.3674 117.6 15.3007C117.596 15.4274 117.588 15.569 117.575 15.7257C117.561 15.879 117.53 16.0174 117.48 16.1407C117.44 16.264 117.361 16.3957 117.245 16.5357C117.131 16.6757 116.978 16.794 116.785 16.8907C116.591 16.9874 116.358 17.0357 116.085 17.0357ZM121.488 20.2457H122.703V17.5707C122.887 17.704 123.093 17.8074 123.323 17.8807C123.557 17.9574 123.813 17.9957 124.093 17.9957C124.593 17.9957 125.027 17.8707 125.393 17.6207C125.763 17.3707 126.05 17.0307 126.253 16.6007C126.457 16.1707 126.558 15.6857 126.558 15.1457C126.558 14.599 126.455 14.1107 126.248 13.6807C126.045 13.2507 125.755 12.9124 125.378 12.6657C125.002 12.419 124.558 12.2957 124.048 12.2957C123.742 12.2957 123.463 12.3424 123.213 12.4357C122.963 12.529 122.743 12.6624 122.553 12.8357V12.4457H121.488V20.2457ZM123.908 16.9157C123.425 16.9157 123.078 16.7524 122.868 16.4257C122.658 16.0957 122.553 15.669 122.553 15.1457C122.553 14.619 122.657 14.1924 122.863 13.8657C123.073 13.539 123.408 13.3757 123.868 13.3757C124.192 13.3757 124.457 13.4557 124.663 13.6157C124.873 13.7724 125.028 13.9857 125.128 14.2557C125.232 14.5224 125.283 14.819 125.283 15.1457C125.283 15.4757 125.233 15.774 125.133 16.0407C125.037 16.3074 124.887 16.5207 124.683 16.6807C124.48 16.8374 124.222 16.9157 123.908 16.9157ZM129.815 17.9957C130.335 17.9957 130.81 17.8624 131.24 17.5957C131.674 17.3257 131.994 16.9457 132.2 16.4557L131.01 16.0957C130.77 16.609 130.349 16.8657 129.745 16.8657C129.335 16.8657 129.012 16.7474 128.775 16.5107C128.539 16.2707 128.397 15.9274 128.35 15.4807H132.26C132.307 14.8307 132.235 14.2674 132.045 13.7907C131.855 13.314 131.564 12.9457 131.17 12.6857C130.78 12.4257 130.305 12.2957 129.745 12.2957C129.215 12.2957 128.749 12.4157 128.345 12.6557C127.942 12.8924 127.627 13.229 127.4 13.6657C127.174 14.1024 127.06 14.6157 127.06 15.2057C127.06 15.7524 127.175 16.2357 127.405 16.6557C127.639 17.0757 127.962 17.404 128.375 17.6407C128.789 17.8774 129.269 17.9957 129.815 17.9957ZM129.795 13.3507C130.169 13.3507 130.455 13.449 130.655 13.6457C130.859 13.839 130.987 14.1474 131.04 14.5707H128.38C128.524 13.7574 128.995 13.3507 129.795 13.3507ZM133.076 17.8457H134.286V15.1007C134.286 14.7874 134.343 14.509 134.456 14.2657C134.573 14.0224 134.754 13.834 135.001 13.7007C135.168 13.604 135.354 13.5474 135.561 13.5307C135.768 13.5107 135.953 13.524 136.116 13.5707V12.4457C135.873 12.409 135.623 12.414 135.366 12.4607C135.109 12.504 134.881 12.594 134.681 12.7307C134.568 12.8007 134.466 12.8857 134.376 12.9857C134.286 13.0824 134.208 13.1907 134.141 13.3107V12.4457H133.076V17.8457ZM139.935 17.8457V16.8357C139.598 16.8857 139.298 16.899 139.035 16.8757C138.772 16.8524 138.58 16.7407 138.46 16.5407C138.397 16.4374 138.362 16.304 138.355 16.1407C138.352 15.974 138.35 15.784 138.35 15.5707V13.3907H139.935V12.4457H138.35V10.9457H137.15V12.4457H136.17V13.3907H137.15V15.6407C137.15 15.9507 137.153 16.2274 137.16 16.4707C137.167 16.7107 137.232 16.9474 137.355 17.1807C137.495 17.4374 137.7 17.6257 137.97 17.7457C138.24 17.8624 138.545 17.924 138.885 17.9307C139.228 17.9407 139.578 17.9124 139.935 17.8457ZM142.978 17.9957C143.498 17.9957 143.973 17.8624 144.403 17.5957C144.836 17.3257 145.156 16.9457 145.363 16.4557L144.173 16.0957C143.933 16.609 143.511 16.8657 142.908 16.8657C142.498 16.8657 142.174 16.7474 141.938 16.5107C141.701 16.2707 141.559 15.9274 141.513 15.4807H145.423C145.469 14.8307 145.398 14.2674 145.208 13.7907C145.018 13.314 144.726 12.9457 144.333 12.6857C143.943 12.4257 143.468 12.2957 142.908 12.2957C142.378 12.2957 141.911 12.4157 141.508 12.6557C141.104 12.8924 140.789 13.229 140.563 13.6657C140.336 14.1024 140.223 14.6157 140.223 15.2057C140.223 15.7524 140.338 16.2357 140.568 16.6557C140.801 17.0757 141.124 17.404 141.538 17.6407C141.951 17.8774 142.431 17.9957 142.978 17.9957ZM142.958 13.3507C143.331 13.3507 143.618 13.449 143.818 13.6457C144.021 13.839 144.149 14.1474 144.203 14.5707H141.543C141.686 13.7574 142.158 13.3507 142.958 13.3507ZM146.082 17.8457H147.302V15.0707C147.302 14.634 147.364 14.2974 147.487 14.0607C147.614 13.8207 147.774 13.6557 147.967 13.5657C148.164 13.4724 148.364 13.4257 148.567 13.4257C148.854 13.4257 149.082 13.489 149.252 13.6157C149.422 13.739 149.547 13.8974 149.627 14.0907C149.71 14.2807 149.764 14.479 149.787 14.6857C149.814 14.8924 149.827 15.079 149.827 15.2457V17.8457H151.047V14.8307C151.047 14.704 151.035 14.5357 151.012 14.3257C150.992 14.1157 150.945 13.894 150.872 13.6607C150.799 13.4274 150.685 13.2074 150.532 13.0007C150.379 12.7907 150.17 12.6207 149.907 12.4907C149.647 12.3574 149.319 12.2907 148.922 12.2907C148.532 12.2907 148.189 12.359 147.892 12.4957C147.599 12.629 147.354 12.8124 147.157 13.0457V12.4457H146.082V17.8457ZM154.419 17.9957C154.939 17.9957 155.414 17.8624 155.844 17.5957C156.277 17.3257 156.597 16.9457 156.804 16.4557L155.614 16.0957C155.374 16.609 154.952 16.8657 154.349 16.8657C153.939 16.8657 153.615 16.7474 153.379 16.5107C153.142 16.2707 153 15.9274 152.954 15.4807H156.864C156.91 14.8307 156.839 14.2674 156.649 13.7907C156.459 13.314 156.167 12.9457 155.774 12.6857C155.384 12.4257 154.909 12.2957 154.349 12.2957C153.819 12.2957 153.352 12.4157 152.949 12.6557C152.545 12.8924 152.23 13.229 152.004 13.6657C151.777 14.1024 151.664 14.6157 151.664 15.2057C151.664 15.7524 151.779 16.2357 152.009 16.6557C152.242 17.0757 152.565 17.404 152.979 17.6407C153.392 17.8774 153.872 17.9957 154.419 17.9957ZM154.399 13.3507C154.772 13.3507 155.059 13.449 155.259 13.6457C155.462 13.839 155.59 14.1474 155.644 14.5707H152.984C153.127 13.7574 153.599 13.3507 154.399 13.3507ZM160.024 17.9957C160.628 17.9957 161.138 17.849 161.554 17.5557C161.971 17.259 162.263 16.8357 162.429 16.2857L161.199 16.0107C161.106 16.2874 160.966 16.499 160.779 16.6457C160.596 16.7924 160.344 16.8657 160.024 16.8657C159.571 16.8657 159.229 16.7074 158.999 16.3907C158.773 16.074 158.658 15.659 158.654 15.1457C158.658 14.649 158.768 14.239 158.984 13.9157C159.204 13.589 159.551 13.4257 160.024 13.4257C160.301 13.4257 160.548 13.5074 160.764 13.6707C160.981 13.8307 161.136 14.0557 161.229 14.3457L162.429 14.0207C162.303 13.4874 162.026 13.0674 161.599 12.7607C161.173 12.4507 160.653 12.2957 160.039 12.2957C159.493 12.2957 159.021 12.419 158.624 12.6657C158.228 12.909 157.921 13.2457 157.704 13.6757C157.491 14.1024 157.383 14.5924 157.379 15.1457C157.383 15.689 157.488 16.1757 157.694 16.6057C157.904 17.0357 158.206 17.3757 158.599 17.6257C158.993 17.8724 159.468 17.9957 160.024 17.9957ZM163.085 11.6257H164.29V10.5207H163.085V11.6257ZM163.085 17.8457H164.29V12.4457H163.085V17.8457ZM167.943 17.9957C168.463 17.9957 168.938 17.8624 169.368 17.5957C169.801 17.3257 170.121 16.9457 170.328 16.4557L169.138 16.0957C168.898 16.609 168.476 16.8657 167.873 16.8657C167.463 16.8657 167.139 16.7474 166.903 16.5107C166.666 16.2707 166.524 15.9274 166.478 15.4807H170.388C170.434 14.8307 170.363 14.2674 170.173 13.7907C169.983 13.314 169.691 12.9457 169.298 12.6857C168.908 12.4257 168.433 12.2957 167.873 12.2957C167.343 12.2957 166.876 12.4157 166.473 12.6557C166.069 12.8924 165.754 13.229 165.528 13.6657C165.301 14.1024 165.188 14.6157 165.188 15.2057C165.188 15.7524 165.303 16.2357 165.533 16.6557C165.766 17.0757 166.089 17.404 166.503 17.6407C166.916 17.8774 167.396 17.9957 167.943 17.9957ZM167.923 13.3507C168.296 13.3507 168.583 13.449 168.783 13.6457C168.986 13.839 169.114 14.1474 169.168 14.5707H166.508C166.651 13.7574 167.123 13.3507 167.923 13.3507ZM171.047 17.8457H172.267V15.0707C172.267 14.634 172.328 14.2974 172.452 14.0607C172.578 13.8207 172.738 13.6557 172.932 13.5657C173.128 13.4724 173.328 13.4257 173.532 13.4257C173.818 13.4257 174.047 13.489 174.217 13.6157C174.387 13.739 174.512 13.8974 174.592 14.0907C174.675 14.2807 174.728 14.479 174.752 14.6857C174.778 14.8924 174.792 15.079 174.792 15.2457V17.8457H176.012V14.8307C176.012 14.704 176 14.5357 175.977 14.3257C175.957 14.1157 175.91 13.894 175.837 13.6607C175.763 13.4274 175.65 13.2074 175.497 13.0007C175.343 12.7907 175.135 12.6207 174.872 12.4907C174.612 12.3574 174.283 12.2907 173.887 12.2907C173.497 12.2907 173.153 12.359 172.857 12.4957C172.563 12.629 172.318 12.8124 172.122 13.0457V12.4457H171.047V17.8457ZM180.182 17.8457V16.8357C179.845 16.8857 179.545 16.899 179.282 16.8757C179.018 16.8524 178.827 16.7407 178.707 16.5407C178.643 16.4374 178.608 16.304 178.602 16.1407C178.598 15.974 178.597 15.784 178.597 15.5707V13.3907H180.182V12.4457H178.597V10.9457H177.397V12.4457H176.417V13.3907H177.397V15.6407C177.397 15.9507 177.4 16.2274 177.407 16.4707C177.413 16.7107 177.478 16.9474 177.602 17.1807C177.742 17.4374 177.947 17.6257 178.217 17.7457C178.487 17.8624 178.792 17.924 179.132 17.9307C179.475 17.9407 179.825 17.9124 180.182 17.8457ZM183.224 17.9957C183.744 17.9957 184.219 17.8624 184.649 17.5957C185.083 17.3257 185.403 16.9457 185.609 16.4557L184.419 16.0957C184.179 16.609 183.758 16.8657 183.154 16.8657C182.744 16.8657 182.421 16.7474 182.184 16.5107C181.948 16.2707 181.806 15.9274 181.759 15.4807H185.669C185.716 14.8307 185.644 14.2674 185.454 13.7907C185.264 13.314 184.973 12.9457 184.579 12.6857C184.189 12.4257 183.714 12.2957 183.154 12.2957C182.624 12.2957 182.158 12.4157 181.754 12.6557C181.351 12.8924 181.036 13.229 180.809 13.6657C180.583 14.1024 180.469 14.6157 180.469 15.2057C180.469 15.7524 180.584 16.2357 180.814 16.6557C181.048 17.0757 181.371 17.404 181.784 17.6407C182.198 17.8774 182.678 17.9957 183.224 17.9957ZM183.204 13.3507C183.578 13.3507 183.864 13.449 184.064 13.6457C184.268 13.839 184.396 14.1474 184.449 14.5707H181.789C181.933 13.7574 182.404 13.3507 183.204 13.3507ZM81.3164 31.9957C81.7464 31.9957 82.1114 31.9257 82.4114 31.7857C82.7147 31.6424 82.9814 31.4207 83.2114 31.1207V31.8457H84.2664V28.5307C84.2664 28.2974 84.2564 28.0824 84.2364 27.8857C84.2164 27.6857 84.1581 27.4907 84.0614 27.3007C83.8847 26.944 83.6131 26.6874 83.2464 26.5307C82.8831 26.374 82.4614 26.2957 81.9814 26.2957C81.3481 26.2957 80.8431 26.434 80.4664 26.7107C80.0897 26.9874 79.8347 27.354 79.7014 27.8107L80.8014 28.1557C80.8914 27.879 81.0497 27.684 81.2764 27.5707C81.5031 27.4574 81.7381 27.4007 81.9814 27.4007C82.3481 27.4007 82.6181 27.4757 82.7914 27.6257C82.9647 27.7724 83.0631 28.0007 83.0864 28.3107C82.6131 28.3807 82.1731 28.449 81.7664 28.5157C81.3631 28.579 81.0197 28.6574 80.7364 28.7507C80.3097 28.8974 79.9981 29.1057 79.8014 29.3757C79.6047 29.6424 79.5064 29.9724 79.5064 30.3657C79.5064 30.6624 79.5747 30.934 79.7114 31.1807C79.8514 31.4274 80.0564 31.6257 80.3264 31.7757C80.5964 31.9224 80.9264 31.9957 81.3164 31.9957ZM81.5564 31.0357C81.2731 31.0357 81.0564 30.9707 80.9064 30.8407C80.7597 30.7107 80.6864 30.5474 80.6864 30.3507C80.6864 30.174 80.7431 30.0307 80.8564 29.9207C80.9731 29.8107 81.1347 29.7174 81.3414 29.6407C81.5314 29.5774 81.7597 29.5224 82.0264 29.4757C82.2931 29.4257 82.6414 29.3674 83.0714 29.3007C83.0681 29.4274 83.0597 29.569 83.0464 29.7257C83.0331 29.879 83.0014 30.0174 82.9514 30.1407C82.9114 30.264 82.8331 30.3957 82.7164 30.5357C82.6031 30.6757 82.4497 30.794 82.2564 30.8907C82.0631 30.9874 81.8297 31.0357 81.5564 31.0357ZM89.9401 31.9957C90.6367 31.9957 91.2351 31.8457 91.7351 31.5457C92.2351 31.2424 92.6184 30.8274 92.8851 30.3007C93.1551 29.774 93.2901 29.1707 93.2901 28.4907C93.2901 28.4707 93.2884 28.409 93.2851 28.3057C93.2817 28.2024 93.2767 28.124 93.2701 28.0707H90.7201V29.0157H91.9901C91.8967 29.6357 91.6801 30.1007 91.3401 30.4107C91.0001 30.7174 90.5584 30.8674 90.0151 30.8607C89.2917 30.8507 88.7484 30.609 88.3851 30.1357C88.0217 29.6624 87.8417 29.0324 87.8451 28.2457C87.8484 27.719 87.9301 27.259 88.0901 26.8657C88.2501 26.4724 88.4901 26.1674 88.8101 25.9507C89.1301 25.734 89.5317 25.629 90.0151 25.6357C90.4917 25.639 90.8851 25.7674 91.1951 26.0207C91.5084 26.274 91.7334 26.614 91.8701 27.0407L93.1001 26.8457C92.9167 26.1057 92.5651 25.529 92.0451 25.1157C91.5284 24.7024 90.8267 24.4957 89.9401 24.4957C89.3001 24.4957 88.7251 24.644 88.2151 24.9407C87.7084 25.2374 87.3067 25.6657 87.0101 26.2257C86.7167 26.7857 86.5701 27.459 86.5701 28.2457C86.5701 29.0457 86.7201 29.7257 87.0201 30.2857C87.3234 30.8424 87.7301 31.2674 88.2401 31.5607C88.7501 31.8507 89.3167 31.9957 89.9401 31.9957ZM93.9943 31.8457H95.2043V29.1007C95.2043 28.7874 95.2609 28.509 95.3743 28.2657C95.4909 28.0224 95.6726 27.834 95.9193 27.7007C96.0859 27.604 96.2726 27.5474 96.4793 27.5307C96.6859 27.5107 96.8709 27.524 97.0343 27.5707V26.4457C96.7909 26.409 96.5409 26.414 96.2843 26.4607C96.0276 26.504 95.7993 26.594 95.5993 26.7307C95.4859 26.8007 95.3843 26.8857 95.2943 26.9857C95.2043 27.0824 95.1259 27.1907 95.0593 27.3107V26.4457H93.9943V31.8457ZM99.7134 32.0007C100.103 32.0007 100.445 31.934 100.738 31.8007C101.035 31.664 101.282 31.479 101.478 31.2457V31.8457H102.543V26.4457H101.333V29.2207C101.333 29.6574 101.27 29.9957 101.143 30.2357C101.02 30.4724 100.862 30.6374 100.668 30.7307C100.475 30.8207 100.275 30.8657 100.068 30.8657C99.7817 30.8657 99.5534 30.804 99.3834 30.6807C99.2134 30.554 99.0867 30.3957 99.0034 30.2057C98.9234 30.0124 98.8701 29.8124 98.8434 29.6057C98.8201 29.399 98.8084 29.2124 98.8084 29.0457V26.4457H97.5884V29.4607C97.5884 29.5874 97.5984 29.7557 97.6184 29.9657C97.6417 30.1757 97.6901 30.3974 97.7634 30.6307C97.8367 30.864 97.9501 31.0857 98.1034 31.2957C98.2567 31.5024 98.4634 31.6724 98.7234 31.8057C98.9867 31.9357 99.3167 32.0007 99.7134 32.0007ZM103.638 34.2457H104.853V31.5707C105.037 31.704 105.243 31.8074 105.473 31.8807C105.707 31.9574 105.963 31.9957 106.243 31.9957C106.743 31.9957 107.177 31.8707 107.543 31.6207C107.913 31.3707 108.2 31.0307 108.403 30.6007C108.607 30.1707 108.708 29.6857 108.708 29.1457C108.708 28.599 108.605 28.1107 108.398 27.6807C108.195 27.2507 107.905 26.9124 107.528 26.6657C107.152 26.419 106.708 26.2957 106.198 26.2957C105.892 26.2957 105.613 26.3424 105.363 26.4357C105.113 26.529 104.893 26.6624 104.703 26.8357V26.4457H103.638V34.2457ZM106.058 30.9157C105.575 30.9157 105.228 30.7524 105.018 30.4257C104.808 30.0957 104.703 29.669 104.703 29.1457C104.703 28.619 104.807 28.1924 105.013 27.8657C105.223 27.539 105.558 27.3757 106.018 27.3757C106.342 27.3757 106.607 27.4557 106.813 27.6157C107.023 27.7724 107.178 27.9857 107.278 28.2557C107.382 28.5224 107.433 28.819 107.433 29.1457C107.433 29.4757 107.383 29.774 107.283 30.0407C107.187 30.3074 107.037 30.5207 106.833 30.6807C106.63 30.8374 106.372 30.9157 106.058 30.9157ZM111.895 31.9957C112.435 31.9957 112.907 31.8757 113.31 31.6357C113.714 31.3924 114.027 31.0574 114.25 30.6307C114.477 30.2007 114.59 29.7057 114.59 29.1457C114.59 28.589 114.479 28.0974 114.255 27.6707C114.032 27.2407 113.719 26.904 113.315 26.6607C112.912 26.4174 112.439 26.2957 111.895 26.2957C111.365 26.2957 110.899 26.4157 110.495 26.6557C110.092 26.8957 109.777 27.229 109.55 27.6557C109.324 28.0824 109.21 28.579 109.21 29.1457C109.21 29.7024 109.32 30.1957 109.54 30.6257C109.764 31.0524 110.077 31.3874 110.48 31.6307C110.884 31.874 111.355 31.9957 111.895 31.9957ZM111.895 30.8657C111.432 30.8657 111.08 30.7107 110.84 30.4007C110.604 30.0874 110.485 29.669 110.485 29.1457C110.485 28.6357 110.599 28.2224 110.825 27.9057C111.055 27.5857 111.412 27.4257 111.895 27.4257C112.369 27.4257 112.724 27.5824 112.96 27.8957C113.197 28.2057 113.315 28.6224 113.315 29.1457C113.315 29.6524 113.197 30.0657 112.96 30.3857C112.727 30.7057 112.372 30.8657 111.895 30.8657ZM117.094 31.8457H118.314V26.7707L121.654 31.8457H122.874V24.6457H121.654V29.7207L118.314 24.6457H117.094V31.8457ZM124.072 25.6257H125.277V24.5207H124.072V25.6257ZM124.072 31.8457H125.277V26.4457H124.072V31.8457ZM128.929 31.9957C129.449 31.9957 129.924 31.8624 130.354 31.5957C130.788 31.3257 131.108 30.9457 131.314 30.4557L130.124 30.0957C129.884 30.609 129.463 30.8657 128.859 30.8657C128.449 30.8657 128.126 30.7474 127.889 30.5107C127.653 30.2707 127.511 29.9274 127.464 29.4807H131.374C131.421 28.8307 131.349 28.2674 131.159 27.7907C130.969 27.314 130.678 26.9457 130.284 26.6857C129.894 26.4257 129.419 26.2957 128.859 26.2957C128.329 26.2957 127.863 26.4157 127.459 26.6557C127.056 26.8924 126.741 27.229 126.514 27.6657C126.288 28.1024 126.174 28.6157 126.174 29.2057C126.174 29.7524 126.289 30.2357 126.519 30.6557C126.753 31.0757 127.076 31.404 127.489 31.6407C127.903 31.8774 128.383 31.9957 128.929 31.9957ZM128.909 27.3507C129.283 27.3507 129.569 27.449 129.769 27.6457C129.973 27.839 130.101 28.1474 130.154 28.5707H127.494C127.638 27.7574 128.109 27.3507 128.909 27.3507ZM135.355 31.8457V30.8357C135.018 30.8857 134.718 30.899 134.455 30.8757C134.192 30.8524 134 30.7407 133.88 30.5407C133.817 30.4374 133.782 30.304 133.775 30.1407C133.772 29.974 133.77 29.784 133.77 29.5707V27.3907H135.355V26.4457H133.77V24.9457H132.57V26.4457H131.59V27.3907H132.57V29.6407C132.57 29.9507 132.573 30.2274 132.58 30.4707C132.587 30.7107 132.652 30.9474 132.775 31.1807C132.915 31.4374 133.12 31.6257 133.39 31.7457C133.66 31.8624 133.965 31.924 134.305 31.9307C134.648 31.9407 134.998 31.9124 135.355 31.8457ZM138.328 31.9957C138.868 31.9957 139.339 31.8757 139.743 31.6357C140.146 31.3924 140.459 31.0574 140.683 30.6307C140.909 30.2007 141.023 29.7057 141.023 29.1457C141.023 28.589 140.911 28.0974 140.688 27.6707C140.464 27.2407 140.151 26.904 139.748 26.6607C139.344 26.4174 138.871 26.2957 138.328 26.2957C137.798 26.2957 137.331 26.4157 136.928 26.6557C136.524 26.8957 136.209 27.229 135.983 27.6557C135.756 28.0824 135.643 28.579 135.643 29.1457C135.643 29.7024 135.753 30.1957 135.973 30.6257C136.196 31.0524 136.509 31.3874 136.913 31.6307C137.316 31.874 137.788 31.9957 138.328 31.9957ZM138.328 30.8657C137.864 30.8657 137.513 30.7107 137.273 30.4007C137.036 30.0874 136.918 29.669 136.918 29.1457C136.918 28.6357 137.031 28.2224 137.258 27.9057C137.488 27.5857 137.844 27.4257 138.328 27.4257C138.801 27.4257 139.156 27.5824 139.393 27.8957C139.629 28.2057 139.748 28.6224 139.748 29.1457C139.748 29.6524 139.629 30.0657 139.393 30.3857C139.159 30.7057 138.804 30.8657 138.328 30.8657ZM143.026 31.8457H144.266L144.756 30.2857H147.596L148.091 31.8457H149.331L147.061 24.6457H145.296L143.026 31.8457ZM145.111 29.1607L146.166 25.8107L147.236 29.1607H145.111ZM152.1 31.9957C152.42 31.9957 152.709 31.9474 152.965 31.8507C153.222 31.754 153.447 31.619 153.64 31.4457V31.8457H154.705V24.6457H153.49V26.7107C153.31 26.5774 153.109 26.4757 152.885 26.4057C152.662 26.3324 152.415 26.2957 152.145 26.2957C151.635 26.2957 151.192 26.419 150.815 26.6657C150.442 26.9124 150.152 27.2507 149.945 27.6807C149.739 28.1107 149.635 28.599 149.635 29.1457C149.635 29.6857 149.737 30.1707 149.94 30.6007C150.144 31.0307 150.43 31.3707 150.8 31.6207C151.17 31.8707 151.604 31.9957 152.1 31.9957ZM152.285 30.9157C151.972 30.9157 151.714 30.8374 151.51 30.6807C151.307 30.5207 151.155 30.3074 151.055 30.0407C150.959 29.774 150.91 29.4757 150.91 29.1457C150.91 28.819 150.96 28.5224 151.06 28.2557C151.164 27.9857 151.319 27.7724 151.525 27.6157C151.735 27.4557 152.002 27.3757 152.325 27.3757C152.785 27.3757 153.119 27.539 153.325 27.8657C153.535 28.1924 153.64 28.619 153.64 29.1457C153.64 29.669 153.535 30.0957 153.325 30.4257C153.119 30.7524 152.772 30.9157 152.285 30.9157ZM157.317 31.9957C157.747 31.9957 158.112 31.9257 158.412 31.7857C158.715 31.6424 158.982 31.4207 159.212 31.1207V31.8457H160.267V28.5307C160.267 28.2974 160.257 28.0824 160.237 27.8857C160.217 27.6857 160.159 27.4907 160.062 27.3007C159.885 26.944 159.614 26.6874 159.247 26.5307C158.884 26.374 158.462 26.2957 157.982 26.2957C157.349 26.2957 156.844 26.434 156.467 26.7107C156.09 26.9874 155.835 27.354 155.702 27.8107L156.802 28.1557C156.892 27.879 157.05 27.684 157.277 27.5707C157.504 27.4574 157.739 27.4007 157.982 27.4007C158.349 27.4007 158.619 27.4757 158.792 27.6257C158.965 27.7724 159.064 28.0007 159.087 28.3107C158.614 28.3807 158.174 28.449 157.767 28.5157C157.364 28.579 157.02 28.6574 156.737 28.7507C156.31 28.8974 155.999 29.1057 155.802 29.3757C155.605 29.6424 155.507 29.9724 155.507 30.3657C155.507 30.6624 155.575 30.934 155.712 31.1807C155.852 31.4274 156.057 31.6257 156.327 31.7757C156.597 31.9224 156.927 31.9957 157.317 31.9957ZM157.557 31.0357C157.274 31.0357 157.057 30.9707 156.907 30.8407C156.76 30.7107 156.687 30.5474 156.687 30.3507C156.687 30.174 156.744 30.0307 156.857 29.9207C156.974 29.8107 157.135 29.7174 157.342 29.6407C157.532 29.5774 157.76 29.5224 158.027 29.4757C158.294 29.4257 158.642 29.3674 159.072 29.3007C159.069 29.4274 159.06 29.569 159.047 29.7257C159.034 29.879 159.002 30.0174 158.952 30.1407C158.912 30.264 158.834 30.3957 158.717 30.5357C158.604 30.6757 158.45 30.794 158.257 30.8907C158.064 30.9874 157.83 31.0357 157.557 31.0357ZM161.259 31.8457H162.474V28.5207C162.474 28.184 162.566 27.9107 162.749 27.7007C162.936 27.4907 163.182 27.3857 163.489 27.3857C163.806 27.3857 164.056 27.4907 164.239 27.7007C164.422 27.9107 164.514 28.204 164.514 28.5807V31.8457H165.714V28.5207C165.714 28.164 165.811 27.8857 166.004 27.6857C166.201 27.4857 166.444 27.3857 166.734 27.3857C167.044 27.3857 167.291 27.4907 167.474 27.7007C167.661 27.9074 167.754 28.1957 167.754 28.5657V31.8457H168.959V28.2607C168.959 27.674 168.799 27.2024 168.479 26.8457C168.162 26.489 167.706 26.3107 167.109 26.3107C166.759 26.3107 166.439 26.3874 166.149 26.5407C165.859 26.694 165.631 26.904 165.464 27.1707C165.321 26.9074 165.117 26.699 164.854 26.5457C164.591 26.389 164.269 26.3107 163.889 26.3107C163.566 26.3107 163.267 26.3757 162.994 26.5057C162.724 26.6324 162.501 26.8074 162.324 27.0307V26.4457H161.259V31.8457ZM172.33 31.9957C172.85 31.9957 173.325 31.8624 173.755 31.5957C174.188 31.3257 174.508 30.9457 174.715 30.4557L173.525 30.0957C173.285 30.609 172.863 30.8657 172.26 30.8657C171.85 30.8657 171.527 30.7474 171.29 30.5107C171.053 30.2707 170.912 29.9274 170.865 29.4807H174.775C174.822 28.8307 174.75 28.2674 174.56 27.7907C174.37 27.314 174.078 26.9457 173.685 26.6857C173.295 26.4257 172.82 26.2957 172.26 26.2957C171.73 26.2957 171.263 26.4157 170.86 26.6557C170.457 26.8924 170.142 27.229 169.915 27.6657C169.688 28.1024 169.575 28.6157 169.575 29.2057C169.575 29.7524 169.69 30.2357 169.92 30.6557C170.153 31.0757 170.477 31.404 170.89 31.6407C171.303 31.8774 171.783 31.9957 172.33 31.9957ZM172.31 27.3507C172.683 27.3507 172.97 27.449 173.17 27.6457C173.373 27.839 173.502 28.1474 173.555 28.5707H170.895C171.038 27.7574 171.51 27.3507 172.31 27.3507ZM175.595 31.8457H176.83V30.6107H175.595V31.8457Z" fill="white"/>
<path d="M8.90974 24.5473C8.33438 24.7696 7.75902 24.8742 7.18366 24.8742C6.216 24.8742 5.50988 24.5735 5.07836 23.9589C4.64684 23.3443 4.5553 22.5336 4.80375 21.5136C5.05221 20.4806 5.54911 19.6568 6.29446 19.0552C7.02674 18.4537 7.90286 18.153 8.89666 18.153C10.0605 18.153 10.9497 18.6499 11.5512 19.6306L15.0818 17.0807C14.598 16.2308 13.8918 15.59 12.9503 15.1454C12.0088 14.7008 10.8843 14.4785 9.56356 14.4785C8.08593 14.4785 6.69983 14.7793 5.40527 15.3677C4.09763 15.9692 2.99921 16.793 2.08387 17.8653C1.16852 18.9376 0.55393 20.1537 0.227021 21.5136C-0.099889 22.8736 -0.0737363 24.0897 0.305479 25.1488C0.684694 26.2211 1.37774 27.0449 2.37155 27.6464C3.36535 28.2479 4.58146 28.5356 6.01986 28.5356C7.02674 28.5356 8.099 28.3918 9.22357 28.091C10.3481 27.7903 11.3681 27.3718 12.2965 26.8226L13.6826 21.1344H9.74663L8.90974 24.5473Z" fill="white"/>
<path d="M50.9111 21.5788C50.4665 23.4095 48.6489 24.8871 46.8575 24.8871C45.066 24.8871 43.9676 23.4487 44.4252 21.5788C44.896 19.6435 46.7005 18.2051 48.492 18.2051C50.2835 18.2051 51.3688 19.7089 50.9111 21.5788ZM49.4204 14.4521C44.9091 14.4521 40.9862 17.6428 40.0316 21.5265C39.0901 25.3971 41.5354 28.5223 45.4583 28.5223C47.2497 28.5223 49.0151 27.947 50.4142 26.8224L50.0742 28.2347H53.6833L55.3179 21.5265C56.2725 17.6428 53.8925 14.4521 49.4204 14.4521Z" fill="white"/>
<path d="M27.9363 26.2731C29.0347 27.45 30.6039 28.1822 32.343 28.1822C35.1545 28.1822 37.5082 26.26 38.1882 23.6709C38.2013 23.6186 38.2143 23.5532 38.2274 23.5009C38.3189 23.0694 40.3589 15.1974 40.3589 15.1974H35.7298C35.7298 15.1974 33.8337 22.5725 33.8337 22.5855C33.6376 23.2394 33.0492 23.7101 32.343 23.7101C31.9246 23.7101 31.5323 23.5401 31.2446 23.2524L30.3685 22.2325L26.0402 17.0412L26.001 17.0019C24.9026 15.8251 23.3334 15.0928 21.5943 15.0928C18.7828 15.0928 16.4291 17.015 15.7491 19.6041C15.736 19.6564 15.723 19.7218 15.7099 19.7741C15.6183 20.2056 15.5399 20.3887 15.5399 20.3887L13.5654 28.2215H18.1944C18.1944 28.2215 20.0905 20.7025 20.0905 20.6895C20.2866 20.0356 20.8751 19.5649 21.5812 19.5649C21.9996 19.5649 22.3919 19.7349 22.6796 20.0226C22.6796 20.0226 25.3602 23.344 27.1909 25.4231L27.9363 26.2731Z" fill="white"/>
</svg>
