<svg width="164" height="18" viewBox="0 0 164 18" fill="none" xmlns="http://www.w3.org/2000/svg">
<g clip-path="url(#clip0)">
<path d="M162.122 11.7678C160.927 11.2555 158.365 11.0848 157.426 12.8776C156.658 14.4143 157.17 16.2925 158.707 17.0608C159.048 17.2316 159.475 17.4023 159.902 17.4023C162.122 17.5731 163.317 16.5486 163.232 14.3289C163.232 13.7313 162.549 12.1093 163.402 13.1337C163.829 13.7313 164 14.4997 164 15.1827C164.171 18.7683 157.597 18.939 156.658 15.6095C156.146 13.9021 156.914 12.1093 158.451 11.3409C159.475 10.9994 160.5 10.914 161.524 11.1702C162.122 11.3409 162.976 12.1093 162.976 12.3654C162.805 12.3654 162.805 12.1093 162.122 11.7678Z" fill="white"/>
<path d="M159.39 14.585C160.244 14.6704 161.183 14.1582 160.756 13.2191C160.67 13.0483 160.158 13.0483 159.902 13.2191C159.39 13.646 159.475 14.1582 159.39 14.585ZM161.183 13.2191C161.353 13.646 161.268 14.1582 161.012 14.4997C160.756 14.6704 160.585 14.8412 160.244 15.0119C160.67 15.3534 161.183 15.6095 161.695 15.8656C161.866 15.951 162.122 16.0364 161.951 16.2925C161.78 16.4632 161.524 16.2925 161.353 16.2071C160.841 16.0364 160.244 15.6095 159.731 15.4388C159.39 15.3534 159.305 15.268 159.305 15.6095C159.219 15.8656 159.305 16.2925 159.219 16.2925C158.451 16.4632 158.707 15.4388 158.792 15.268C158.792 14.6704 158.963 14.1582 159.134 13.646C159.475 12.7069 160.756 12.1093 161.183 13.2191Z" fill="white"/>
<path d="M131.473 16.2926V8.1822C131.559 6.81624 131.046 5.53566 130.107 4.59656C129.253 3.82821 128.144 3.40135 127.034 3.48672C125.583 3.40135 124.217 3.99896 123.277 5.1088C122.509 4.08433 121.229 3.48672 119.948 3.48672C118.753 3.48672 117.643 3.91359 116.789 4.76731V3.5721H113.716V16.2072H116.875V8.52368C116.704 7.41385 117.558 6.38938 118.667 6.21864C118.753 6.21864 118.923 6.21864 119.009 6.21864C120.033 6.21864 121.058 6.81624 121.058 8.52368V16.2072H124.217V8.52368C124.131 7.41385 124.9 6.38938 126.009 6.30401C126.095 6.30401 126.18 6.30401 126.265 6.30401C127.29 6.30401 128.314 6.90161 128.314 8.60906V16.2926H131.473Z" fill="white"/>
<path d="M142.913 16.2925V7.92605C142.913 4.93802 141.12 3.48669 137.535 3.48669C135.4 3.48669 134.205 3.91356 133.01 5.27951L135.059 7.24307C135.656 6.47472 136.51 6.13323 137.535 6.2186C139.242 6.2186 139.925 6.81621 139.925 8.18217V8.77977H136.766C133.864 8.77977 132.498 10.4018 132.498 12.4508C132.498 13.4752 132.839 14.4997 133.522 15.2681C134.376 16.0364 135.571 16.4633 136.766 16.3779C137.961 16.4633 139.071 16.0364 139.84 15.1827V16.2925H142.913ZM139.754 11.5971C139.84 12.1947 139.669 12.7923 139.327 13.2191C138.815 13.7314 138.047 13.9021 137.364 13.8167C136.169 13.8167 135.571 13.2191 135.571 12.3654C135.571 11.5117 136.169 10.9141 137.364 10.9141H139.84V11.5971H139.754Z" fill="white"/>
<path d="M100.91 9.03586H95.0193V16.2925H91.6044V0.0717773H95.0193V6.04783H100.91V0.0717773H104.069V11.2555C104.069 12.963 105.179 13.5606 106.118 13.5606C107.227 13.5606 108.167 12.7069 108.252 11.597C108.252 11.5117 108.252 11.3409 108.252 11.2555V3.57204H111.411V16.2071H108.337V15.0973C107.484 15.951 106.374 16.4632 105.179 16.3779C104.069 16.3779 102.959 16.0364 102.191 15.268C101.251 14.3289 100.825 12.963 100.91 11.6824V9.03586Z" fill="white"/>
<path d="M154.865 16.2925V0.0717773H151.706V4.76725C150.938 3.91353 149.828 3.40129 148.633 3.48667C147.523 3.48667 146.413 3.82815 145.56 4.5965C144.279 5.87709 144.279 8.01139 144.279 9.88958C144.279 11.7678 144.279 13.9874 145.56 15.268C146.413 16.0364 147.523 16.4632 148.633 16.3779C149.828 16.4632 151.023 15.951 151.792 15.0119V16.2071L154.865 16.2925ZM151.706 9.88958C151.706 11.9385 151.45 13.5606 149.572 13.5606C147.694 13.5606 147.438 11.9385 147.438 9.88958C147.438 7.84065 147.694 6.21858 149.572 6.21858C151.45 6.21858 151.706 7.84065 151.706 9.88958Z" fill="white"/>
<path d="M2.04893 16.1223L0 8.86569C0 8.78032 0 8.69495 0.0853722 8.69495H0.597605C0.682978 8.69495 0.76835 8.69495 0.76835 8.78032L2.39042 14.5856H2.47579L4.01249 8.78032C4.01249 8.69495 4.09787 8.69495 4.18324 8.69495H4.69547C4.78084 8.69495 4.86622 8.69495 4.86622 8.78032L6.40292 14.5856H6.48829L8.11036 8.78032C8.11036 8.69495 8.19573 8.69495 8.2811 8.69495H8.79334C8.87871 8.69495 8.96408 8.78032 8.87871 8.86569L6.82978 16.1223C6.82978 16.2077 6.7444 16.2077 6.65903 16.2077H6.1468C6.06143 16.2077 5.97605 16.2077 5.97605 16.1223L4.43935 10.1463H4.35398L2.81728 16.1223C2.81728 16.2077 2.73191 16.2077 2.64654 16.2077H2.13431C2.13431 16.2931 2.04893 16.2077 2.04893 16.1223Z" fill="white"/>
<path d="M14.684 9.37739H10.7569H10.6715V12.0239V12.1093H13.4034C13.4888 12.1093 13.5742 12.1947 13.5742 12.1947V12.6215C13.5742 12.7069 13.5742 12.7923 13.4888 12.7923H10.7569C10.7569 12.7923 10.6715 12.7923 10.6715 12.8777V15.5242V15.6096H14.5987C14.684 15.6096 14.7694 15.6096 14.7694 15.6949V16.1218C14.7694 16.2072 14.7694 16.2925 14.684 16.2925H10.1593C10.0739 16.2925 9.98856 16.2925 9.98856 16.2072V8.95053C9.98856 8.86516 9.98856 8.77979 10.0739 8.77979H14.684C14.7694 8.77979 14.8548 8.77979 14.8548 8.86516V9.29202C14.8548 9.29202 14.7694 9.37739 14.684 9.37739Z" fill="white"/>
<path d="M20.2332 12.3653C21.0016 12.7068 21.4284 13.3044 21.4284 14.1582C21.4284 15.4387 20.4893 16.2071 19.2087 16.2071H16.6476C16.5622 16.2071 16.4768 16.2071 16.4768 16.1217V8.86508C16.4768 8.77971 16.4768 8.69434 16.5622 8.69434H19.038C20.4039 8.69434 21.2577 9.37731 21.2577 10.6579C21.343 11.4262 20.9162 12.1092 20.2332 12.3653ZM17.2452 9.46269V12.0239V12.1092H19.038C19.9771 12.1092 20.4893 11.597 20.4893 10.8286C20.4893 9.97492 19.8917 9.46269 19.038 9.46269H17.2452C17.2452 9.37731 17.2452 9.37731 17.2452 9.46269ZM20.6601 14.1582C20.6601 13.3044 20.0625 12.7068 19.1234 12.7068H17.2452H17.1598V15.4387C17.1598 15.4387 17.1598 15.5241 17.2452 15.5241H19.1234C20.0625 15.5241 20.6601 15.0119 20.6601 14.1582Z" fill="white"/>
<path d="M30.6486 16.2071H30.1364C30.051 16.2071 29.9656 16.2071 29.9656 16.1218L29.368 15.4388C29.368 15.4388 29.368 15.4388 29.2827 15.4388C28.6851 16.0364 27.9167 16.2925 27.063 16.2925C25.8678 16.2925 24.9287 15.6949 24.9287 14.5851C24.9287 13.4752 25.697 12.7922 26.5508 12.28V12.1946C25.697 11.1702 25.5263 10.8287 25.5263 10.3165C25.5263 9.29199 26.2093 8.60901 27.3191 8.60901C28.429 8.60901 29.1973 9.29199 29.1973 10.2311C29.1973 11.1702 28.429 11.7678 27.6606 12.28V12.3654C28.0021 12.7922 28.429 13.2191 28.9412 13.8167C29.1119 13.9875 29.1973 14.1582 29.2827 14.2436H29.368C29.5388 13.9875 29.7949 13.7313 30.051 13.3899C30.051 13.3045 30.1364 13.3045 30.2218 13.3045L30.5633 13.4752C30.6486 13.4752 30.6486 13.5606 30.6486 13.646C30.3925 14.0728 30.051 14.4143 29.7949 14.7558C29.7949 14.7558 29.7949 14.8412 29.8803 14.9266C30.3071 15.4388 30.5633 15.7803 30.734 15.951C30.8194 16.1218 30.734 16.2071 30.6486 16.2071ZM28.7704 14.9266C28.8558 14.9266 28.8558 14.9266 28.7704 14.9266C28.1728 14.1582 28.1728 14.1582 27.9167 13.9021C27.5752 13.4752 27.2337 13.1337 26.9776 12.8776C26.9776 12.8776 26.9776 12.8776 26.8923 12.8776C26.2093 13.3045 25.6117 13.9021 25.6117 14.5851C25.6117 15.3534 26.2093 15.7803 27.063 15.6949C27.746 15.6095 28.2582 15.3534 28.7704 14.9266ZM26.2946 10.3165C26.2946 10.6579 26.38 10.9141 27.1484 11.7678C27.1484 11.7678 27.1484 11.7678 27.2337 11.7678C27.9167 11.3409 28.4289 10.8287 28.4289 10.2311C28.4289 9.63347 28.0021 9.29199 27.3191 9.29199C26.6361 9.29199 26.2946 9.71885 26.2946 10.3165Z" fill="white"/>
<path d="M38.4175 12.3653C39.1858 12.7068 39.6127 13.3044 39.6127 14.1582C39.6127 15.4387 38.6736 16.2071 37.393 16.2071H34.8319C34.7465 16.2071 34.6611 16.2071 34.6611 16.1217V8.86508C34.6611 8.77971 34.6611 8.69434 34.7465 8.69434H37.2223C38.5882 8.69434 39.442 9.37731 39.442 10.6579C39.5273 11.4262 39.1005 12.1092 38.4175 12.3653ZM35.4295 9.46269V12.0239V12.1092H37.2223C38.1614 12.1092 38.6736 11.597 38.6736 10.8286C38.6736 9.97492 38.076 9.46269 37.2223 9.46269H35.4295C35.4295 9.37731 35.4295 9.37731 35.4295 9.46269ZM38.8444 14.1582C38.8444 13.3044 38.2467 12.7068 37.3077 12.7068H35.4295H35.3441V15.4387C35.3441 15.4387 35.3441 15.5241 35.4295 15.5241H37.3077C38.2467 15.5241 38.8444 15.0119 38.8444 14.1582Z" fill="white"/>
<path d="M45.5888 16.1217L44.0521 12.7922C44.0521 12.7922 44.0521 12.7922 43.9667 12.7922H42.1739H42.0885V16.0363C42.0885 16.1217 42.0885 16.2071 42.0031 16.2071H41.4909C41.4055 16.2071 41.3201 16.2071 41.3201 16.1217V8.86508C41.3201 8.77971 41.3201 8.69434 41.4055 8.69434H44.1374C45.3326 8.69434 46.1864 9.54806 46.1864 10.7433C46.1864 11.7677 45.5887 12.4507 44.6497 12.7068C44.6497 12.7068 44.6497 12.7068 44.6497 12.7922L46.2717 16.0363C46.2717 16.1217 46.2717 16.2071 46.1864 16.2071H45.6741C45.7595 16.2071 45.6741 16.2071 45.5888 16.1217ZM42.1739 9.46269V12.1946C42.1739 12.1946 42.1739 12.28 42.2592 12.28H44.2228C44.9911 12.28 45.5888 11.6824 45.5888 10.914C45.5888 10.1457 44.9911 9.54806 44.2228 9.54806L42.1739 9.46269C42.1739 9.37731 42.1739 9.37731 42.1739 9.46269Z" fill="white"/>
<path d="M52.6747 16.1217L52.2478 14.8411C52.2478 14.8411 52.2478 14.8411 52.1624 14.8411H48.9183C48.9183 14.8411 48.9183 14.8411 48.8329 14.8411L48.406 16.1217C48.406 16.2071 48.3207 16.2071 48.2353 16.2071H47.7231C47.6377 16.2071 47.6377 16.2071 47.5523 16.1217C47.5523 16.1217 47.5523 16.1217 47.5523 16.0363L49.9427 8.77971C49.9427 8.69434 50.0281 8.69434 50.1135 8.69434H50.7965C50.8818 8.69434 50.9672 8.69434 50.9672 8.77971L53.3576 16.0363C53.3576 16.1217 53.3576 16.1217 53.2723 16.2071C53.2723 16.2071 53.2723 16.2071 53.1869 16.2071H52.6747C52.76 16.2071 52.6747 16.2071 52.6747 16.1217ZM49.1744 14.1582H51.9917C51.9917 14.1582 52.0771 14.1582 51.9917 14.0728L50.6257 9.63343C50.6257 9.54806 50.5404 9.54806 50.5404 9.63343L49.1744 14.1582Z" fill="white"/>
<path d="M54.8943 16.1217V8.86508C54.8943 8.77971 54.8943 8.69434 54.9797 8.69434H55.4919C55.5773 8.69434 55.6627 8.69434 55.6627 8.77971L59.2483 14.6704H59.3337V8.86508C59.3337 8.77971 59.3337 8.69434 59.419 8.69434H59.9313C60.0166 8.69434 60.102 8.69434 60.102 8.77971V16.0363C60.102 16.1217 60.102 16.2071 60.0167 16.2071H59.5044C59.419 16.2071 59.3337 16.2071 59.3337 16.1217L55.6627 10.231H55.5773V16.0363C55.5773 16.1217 55.5773 16.2071 55.4919 16.2071H54.9797C54.9797 16.2071 54.8943 16.2071 54.8943 16.1217Z" fill="white"/>
<path d="M61.9802 16.1217V8.86508C61.9802 8.77971 61.9802 8.69434 62.0656 8.69434H64.5414C65.9927 8.69434 66.8464 9.46269 66.8464 10.7433V14.1582C66.8464 15.4387 65.9073 16.2071 64.5414 16.2071H62.0656C61.9802 16.2071 61.9802 16.2071 61.9802 16.1217ZM62.7486 15.6095H64.6268C65.5659 15.6095 66.1635 15.0119 66.1635 14.0728V10.914C66.1635 9.97492 65.5659 9.37731 64.6268 9.37731H62.7486H62.6632L62.7486 15.6095C62.7486 15.5241 62.7486 15.6095 62.7486 15.6095Z" fill="white"/>
<path d="M68.5539 16.1217V8.86508C68.5539 8.77971 68.5539 8.69434 68.6392 8.69434H69.1515C69.2368 8.69434 69.3222 8.69434 69.3222 8.77971V16.0363C69.3222 16.1217 69.3222 16.2071 69.2368 16.2071H68.7246C68.6392 16.2071 68.5539 16.2071 68.5539 16.1217Z" fill="white"/>
<path d="M71.3712 16.1217V8.86508C71.3712 8.77971 71.3712 8.69434 71.4565 8.69434H71.9688C72.0541 8.69434 72.1395 8.69434 72.1395 8.77971L75.7251 14.6704H75.8105V8.86508C75.8105 8.77971 75.8105 8.69434 75.8959 8.69434H76.4081C76.4935 8.69434 76.5789 8.69434 76.5789 8.77971V16.0363C76.5789 16.1217 76.5789 16.2071 76.4935 16.2071H75.9813C75.8959 16.2071 75.8105 16.2071 75.8105 16.1217L72.1395 10.231H72.0541V16.0363C72.0541 16.1217 72.0541 16.2071 71.9688 16.2071H71.4565C71.4565 16.2071 71.3712 16.2071 71.3712 16.1217Z" fill="white"/>
<path d="M78.3717 13.9875V10.9994C78.3717 9.5481 79.3961 8.60901 80.9328 8.60901C82.4695 8.60901 83.4086 9.5481 83.4086 10.9141V10.9994C83.4086 11.0848 83.4086 11.1702 83.3233 11.1702H82.811C82.7256 11.1702 82.6403 11.1702 82.6403 11.0848V10.9994C82.6403 10.0603 81.9573 9.37736 80.8475 9.37736C79.823 9.37736 79.14 10.0603 79.14 11.0848V14.0728C79.14 15.0973 79.9084 15.7803 80.9328 15.7803C81.9573 15.7803 82.6403 15.1827 82.6403 14.1582V13.2191V13.1337H81.1036C81.0182 13.1337 80.9328 13.0484 80.9328 13.0484V12.5361C80.9328 12.4508 81.0182 12.3654 81.0182 12.3654H83.2379C83.3233 12.3654 83.4086 12.4508 83.4086 12.4508V13.8167C83.4086 15.3534 82.3842 16.2925 80.9328 16.2925C79.3961 16.3779 78.3717 15.3534 78.3717 13.9875Z" fill="white"/>
</g>
<defs>
<clipPath id="clip0">
<rect width="164" height="17.9282" fill="white" transform="translate(0 0.0717773)"/>
</clipPath>
</defs>
</svg>
