<svg width="105" height="55" viewBox="0 0 105 55" fill="none" xmlns="http://www.w3.org/2000/svg">
<symbol id="my" viewBox="0 0 105 55">
<path d="M62.0621 17.0476L57.4039 27.625L56.2933 24.8105L48.4576 4.83113C47.3471 2.29504 44.9408 0.501221 42.1644 0.501221C39.388 0.501221 37.0126 2.26411 35.8712 4.86205L30.0407 19.46L24.2411 4.86205C23.0996 2.26411 20.7242 0.501221 17.9478 0.501221C15.1714 0.501221 12.7652 2.29504 11.6546 4.86205L0.302117 33.3157C-0.561659 35.5116 0.487212 37.9858 2.6775 38.8827C4.86779 39.7487 7.33572 38.6972 8.23035 36.5013L17.9478 12.1301C17.9478 12.1301 24.3953 28.2126 24.3953 28.2435C25.3825 30.6559 27.5419 32.326 30.0715 32.326C32.6937 32.326 34.9149 30.5322 35.8403 27.9961L42.1953 12.1301L50.9256 34.4291C51.9127 37.2126 54.4424 39.1611 57.4656 39.1611C60.3654 39.1611 62.8333 37.3363 63.8822 34.7384L69.8669 21.1301L70.0829 20.6353C71.0701 18.4085 70.052 15.8105 67.8617 14.8518C65.6097 13.8621 63.0493 14.8518 62.0621 17.0476Z" fill="currentColor"/>
<path d="M102.852 8.16558C100.786 6.90451 98.0717 7.5981 96.838 9.71039L86.9068 26.6403L78.9803 12.0434C78.8261 11.7281 78.4251 11.066 78.3943 11.0345C76.9447 8.85917 74.5082 7.40894 71.7324 7.40894C68.679 7.40894 65.9957 9.17444 64.6078 11.7912C64.5153 11.9488 64.3611 12.2641 64.3611 12.2641L61.1535 19.6729C60.1974 21.9428 61.1843 24.5595 63.405 25.5369C65.6256 26.5457 68.2164 25.5053 69.1725 23.2669L71.7632 17.2768L81.6636 35.4678L74.5699 47.6056C73.3362 49.7179 74.0147 52.4923 76.0811 53.7533C78.1476 55.0144 80.8617 54.3208 82.0954 52.2085L104.363 14.2818C105.628 12.1695 104.949 9.42665 102.852 8.16558Z" fill="currentColor"/>
</symbol>
</svg>
