<svg width="1366" height="1771" viewBox="0 0 1366 1771" fill="none" xmlns="http://www.w3.org/2000/svg">
<mask id="mask0" mask-type="alpha" maskUnits="userSpaceOnUse" x="0" y="0" width="1366" height="1771">
<rect width="1366" height="1771" fill="#C4C4C4"/>
</mask>
<g mask="url(#mask0)">
<mask id="mask1" mask-type="alpha" maskUnits="userSpaceOnUse" x="167" y="736" width="2000" height="1188">
<path d="M167 750C167 742.82 172.82 737 180 737H2154C2161.18 737 2167 742.82 2167 750V1911C2167 1918.18 2161.18 1924 2154 1924H180C172.82 1924 167 1918.18 167 1911V750Z" fill="#18B6E0"/>
</mask>
<g mask="url(#mask1)">
<path d="M2182.37 2565.57C2110.13 2540.19 2037.9 2514.55 1966.6 2486.81C1930.25 2472.68 1893.9 2457.77 1858.01 2442.07C1849.81 2438.41 1841.83 2435 1833.62 2431.34C1828.93 2429.25 1824.24 2427.15 1819.55 2424.8C1817.44 2423.75 1815.56 2422.97 1813.45 2421.92C1812.75 2421.66 1805.01 2418 1808.76 2419.83C1812.75 2421.66 1806.18 2418.52 1805.95 2418.52C1803.84 2417.47 1801.96 2416.69 1799.85 2415.64C1795.86 2413.81 1791.88 2411.72 1787.89 2409.89C1778.51 2405.44 1769.36 2400.73 1759.98 2396.02C1695.95 2363.31 1633.33 2326.94 1573.76 2284.82C1545.39 2264.67 1517.71 2243.48 1490.97 2220.97C1487.93 2218.36 1484.88 2215.74 1481.83 2213.39C1487.93 2218.62 1481.12 2212.86 1478.78 2210.77C1471.74 2204.75 1464.94 2198.47 1458.14 2192.19C1445.48 2180.42 1433.05 2168.38 1420.85 2156.08C1396.46 2131.49 1373.24 2105.32 1351.19 2078.11C1340.17 2064.51 1329.38 2050.64 1319.06 2036.25C1316.72 2032.85 1314.37 2029.71 1312.03 2026.31C1306.87 2018.72 1310.86 2024.74 1312.03 2026.31C1310.86 2024.74 1309.68 2022.9 1308.51 2021.33C1303.59 2014.01 1298.66 2006.68 1293.97 1999.09C1274.5 1968.48 1256.44 1936.56 1240.5 1903.33C1231.82 1885.28 1224.31 1866.96 1216.81 1848.38C1214.7 1843.15 1217.04 1848.91 1217.28 1849.95C1216.57 1847.86 1215.64 1845.77 1214.93 1843.67C1213.53 1839.49 1211.88 1835.3 1210.48 1831.12C1207.19 1821.17 1203.91 1811.23 1200.86 1801.29C1195.47 1782.71 1190.54 1763.87 1186.79 1744.77C1184.91 1736.14 1183.51 1727.24 1181.86 1718.34C1180.93 1713.11 1180.22 1708.14 1179.52 1702.91C1179.52 1702.12 1178.58 1694.8 1179.28 1700.55C1179.99 1706.31 1179.05 1697.15 1178.82 1696.1C1176.94 1677 1176 1657.64 1176 1638.28C1176 1628.6 1176.47 1618.92 1176.94 1609.5C1177.17 1605.05 1177.64 1600.6 1177.88 1596.15C1178.11 1594.06 1178.35 1591.71 1178.58 1589.61C1177.41 1597.46 1179.05 1581.76 1178.58 1589.61C1181.16 1571.82 1184.21 1554.29 1188.67 1537.28C1190.78 1529.43 1193.12 1521.58 1195.7 1513.99C1196.4 1511.9 1197.81 1504.58 1199.45 1503.27C1199.45 1503.27 1196.17 1511.64 1198.28 1506.41C1199.22 1504.05 1200.16 1501.7 1201.1 1499.6C1207.19 1484.69 1214.23 1470.3 1222.2 1456.43C1226.19 1449.63 1230.18 1442.83 1234.63 1436.02C1236.98 1432.36 1240.73 1427.65 1235.81 1434.19C1238.62 1430.27 1241.43 1426.34 1244.48 1422.68C1253.86 1410.38 1264.18 1398.87 1274.97 1388.4C1277.55 1386.05 1280.13 1383.69 1282.48 1381.34C1289.04 1375.32 1277.08 1385.52 1283.88 1380.03C1289.98 1375.06 1296.31 1370.09 1302.88 1365.64C1308.51 1361.71 1314.14 1358.31 1319.77 1354.91C1323.05 1353.08 1326.57 1350.99 1329.85 1349.42C1330.56 1349.16 1334.07 1347.85 1334.31 1347.06C1333.61 1348.63 1326.33 1350.46 1332.67 1347.85C1345.8 1342.35 1359.17 1337.64 1373.01 1334.76C1375.82 1334.24 1380.04 1334.24 1382.62 1332.93C1382.39 1332.93 1373.71 1333.98 1378.87 1333.46C1380.98 1333.19 1383.09 1332.93 1385.44 1332.67C1392.71 1332.15 1399.98 1331.89 1407.25 1331.89C1411 1331.89 1414.75 1332.15 1418.5 1332.41C1421.08 1332.67 1423.43 1332.93 1426.01 1333.19C1426.95 1333.19 1433.05 1334.24 1427.42 1333.19C1422.02 1332.41 1432.58 1334.24 1434.45 1334.5C1438.67 1335.29 1442.9 1336.33 1447.12 1337.64C1454.86 1339.74 1462.6 1342.35 1470.34 1345.23C1473.85 1346.54 1477.37 1347.85 1480.89 1349.42C1483.7 1350.72 1493.55 1355.7 1485.82 1351.51C1500.83 1359.36 1515.37 1367.47 1529.67 1377.15C1544.68 1387.36 1558.99 1398.35 1573.06 1410.12C1574.7 1411.43 1576.11 1412.74 1577.75 1414.04C1577.28 1413.52 1572.59 1409.33 1576.58 1413C1579.63 1415.88 1582.68 1418.49 1585.72 1421.37C1592.76 1427.91 1599.8 1434.45 1606.83 1441.26C1632.16 1465.85 1656.08 1492.28 1680.24 1518.44C1729.02 1571.3 1779.68 1624.41 1838.78 1663.14C1900.46 1703.69 1972 1725.67 2043.76 1717.56C2118.11 1708.92 2187.29 1677 2251.79 1635.92C2314.64 1595.89 2372.81 1548.01 2433.55 1504.58C2464.04 1482.6 2495.23 1461.93 2527.36 1442.83C2543.31 1433.41 2559.49 1424.51 2575.91 1416.4C2577.79 1415.35 2579.66 1414.57 2581.54 1413.52C2581.77 1413.26 2588.11 1410.38 2583.89 1412.47C2579.43 1414.57 2585.76 1411.69 2586.23 1411.43C2588.81 1410.38 2591.39 1409.07 2593.97 1408.03C2602.41 1404.36 2610.86 1400.96 2619.3 1397.56C2635.95 1391.28 2652.6 1385.52 2669.72 1380.81C2677.7 1378.72 2685.91 1376.63 2694.11 1375.06C2697.87 1374.27 2701.62 1373.49 2705.37 1372.7C2707.25 1372.44 2709.12 1371.92 2711 1371.66C2711.94 1371.4 2720.15 1370.35 2714.52 1371.13C2709.12 1371.92 2715.46 1371.13 2716.16 1370.87C2718.74 1370.61 2721.32 1370.35 2723.9 1370.09C2727.65 1369.56 2731.64 1369.3 2735.39 1369.04C2743.6 1368.26 2752.04 1367.99 2760.25 1367.73C2777.61 1367.47 2794.73 1368.52 2811.85 1370.35C2820.76 1371.4 2806.22 1369.3 2815.13 1370.87C2818.88 1371.66 2822.64 1372.18 2826.39 1372.97C2835.07 1374.8 2843.74 1376.89 2852.42 1379.51C2859.69 1381.6 2866.96 1383.95 2874.23 1386.83C2877.75 1388.14 2881.5 1389.71 2885.02 1391.02C2887.37 1392.07 2889.71 1393.11 2892.06 1394.16C2888.07 1392.59 2887.84 1392.07 2891.82 1394.16C2906.83 1401.75 2921.37 1410.38 2935.21 1420.59C2940.84 1424.77 2946.23 1428.96 2951.63 1433.41C2957.02 1437.85 2951.63 1432.1 2950.46 1432.36C2950.92 1432.36 2953.97 1435.5 2954.21 1435.76C2957.26 1438.38 2960.07 1441.26 2962.89 1444.13C2973.44 1454.6 2983.52 1465.85 2992.91 1477.89C2995.02 1480.5 2997.13 1483.38 2999.24 1486.26C3000.65 1488.09 3007.68 1497.51 3003.93 1492.54C3000.18 1487.57 3006.51 1496.2 3007.45 1497.77C3009.79 1501.17 3011.9 1504.84 3014.25 1508.24C3030.66 1534.93 3044.74 1563.45 3056.7 1593.01C3058.34 1596.94 3059.98 1601.12 3061.62 1605.31C3063.73 1610.54 3060.68 1602.43 3060.45 1602.17C3061.39 1603.48 3061.86 1605.83 3062.33 1607.4C3065.38 1615.78 3068.19 1624.15 3071 1632.52C3076.16 1648.22 3080.85 1664.44 3085.31 1680.4C3094.22 1712.85 3101.49 1745.82 3107.83 1779.05C3113.92 1811.23 3119.32 1843.67 3124.01 1876.38C3127.76 1902.28 3157.55 1918.77 3178.89 1911.18C3203.98 1902.02 3214.07 1877.43 3210.08 1849.95C3189.91 1713.11 3161.53 1568.42 3088.36 1453.29C3049.66 1392.33 2999.71 1339.74 2938.26 1308.86C2870.95 1274.85 2796.6 1262.55 2723.2 1270.4C2567.7 1287.14 2436.13 1381.08 2309.95 1476.32C2279.93 1499.08 2249.68 1521.32 2218.25 1541.99C2202.3 1552.46 2186.36 1562.4 2169.7 1571.56C2161.97 1576.01 2153.99 1580.19 2146.02 1584.12C2144.14 1585.16 2132.18 1590.92 2140.15 1587C2135.93 1589.09 2131.48 1590.92 2127.26 1592.75C2110.84 1599.82 2093.95 1605.83 2076.6 1610.54C2068.39 1612.9 2060.18 1614.73 2051.97 1616.3C2050.09 1616.56 2048.22 1616.82 2046.34 1617.35C2046.81 1617.35 2053.85 1616.3 2048.69 1617.09C2043.53 1617.61 2038.37 1618.39 2033.21 1618.65C2015.62 1619.96 1998.26 1619.18 1980.67 1617.35C1988.65 1618.13 1979.97 1617.09 1976.92 1616.56C1972.47 1615.78 1968.24 1614.73 1963.79 1613.68C1955.34 1611.59 1947.14 1608.97 1938.93 1606.1C1935.41 1604.79 1931.89 1603.48 1928.61 1602.17C1926.5 1601.39 1914.77 1595.89 1923.92 1600.34C1915.94 1596.68 1908.2 1592.49 1900.7 1588.04C1886.39 1579.67 1872.79 1570.51 1859.42 1560.31C1852.62 1555.34 1846.05 1549.84 1839.49 1544.61C1838.08 1543.3 1836.44 1541.99 1835.03 1540.68C1836.44 1541.99 1841.83 1546.44 1835.03 1540.68C1831.51 1537.54 1827.99 1534.4 1824.71 1531.26C1811.34 1518.97 1798.44 1506.41 1785.78 1493.32C1732.31 1438.64 1682.82 1380.03 1625.13 1330.58C1566.73 1280.34 1501.29 1242.66 1427.18 1233.77C1362.45 1225.92 1295.14 1248.42 1242.37 1290.28C1189.13 1332.67 1146.22 1390.5 1120.18 1457.74C1090.87 1533.36 1081.25 1616.56 1089.69 1698.46C1107.05 1865.65 1182.57 2016.36 1281.3 2141.17C1373.01 2256.82 1486.99 2350.49 1608.24 2424.01C1747.55 2508.53 1897.42 2568.71 2047.75 2623.13C2084.34 2636.47 2121.16 2649.3 2157.98 2662.38C2180.26 2670.23 2207.7 2653.22 2212.86 2627.58C2219.19 2599.58 2206.29 2573.94 2182.37 2565.57Z" fill="#004962"/>
</g>
<mask id="mask2" mask-type="alpha" maskUnits="userSpaceOnUse" x="-8" y="13" width="1384" height="955">
<rect x="-8" y="13" width="1384" height="955" fill="#C4C4C4"/>
</mask>
<g mask="url(#mask2)">
<path d="M-855.382 1031.92C-825.723 963.554 -796.158 895.413 -764.399 828.041C-748.208 793.756 -731.564 759.657 -714.177 725.996C-710.251 718.365 -706.325 710.734 -702.173 703.196C-699.865 698.862 -697.465 694.302 -695.157 689.968C-694.096 688.027 -693.194 686.152 -692.066 684.371C-691.788 683.693 -687.822 676.606 -689.599 679.97C-691.721 683.852 -688.352 677.577 -688.193 677.51C-687.131 675.569 -686.004 673.788 -685.102 671.913C-682.913 668.191 -680.95 664.375 -678.761 660.652C-673.827 651.851 -668.826 643.209 -663.825 634.567C-628.869 574.845 -590.324 516.992 -547.456 462.761C-527.031 436.816 -505.502 411.721 -483.029 387.541C-480.441 384.775 -478.012 382.075 -475.423 379.308C-480.6 384.841 -474.759 378.657 -472.768 376.701C-466.768 370.45 -460.542 364.291 -454.316 358.133C-442.78 346.76 -430.951 335.64 -418.922 324.997C-395.131 303.075 -370.037 282.479 -343.891 263.504C-330.851 253.937 -317.453 244.781 -303.921 235.944C-300.84 233.908 -297.6 231.805 -294.452 229.928C-292.992 228.944 -287.268 225.616 -294.452 229.928C-292.832 228.877 -291.305 228.052 -289.685 227C-282.819 222.821 -275.727 218.734 -268.635 214.647C-239.723 198.26 -209.919 183.559 -179.182 171.09C-162.539 164.322 -145.496 158.511 -128.612 152.766C-123.857 151.154 -129.25 153.033 -129.954 153.14C-128.134 152.567 -126.088 152.086 -124.268 151.513C-120.402 150.459 -116.536 149.405 -112.671 148.351C-103.757 145.937 -94.5501 143.775 -85.5029 141.679C-68.6837 138.02 -51.7575 135.066 -34.6577 132.975C-26.8452 131.957 -18.8996 131.257 -11.1134 130.624C-6.59577 130.234 -2.01161 130.004 2.73198 129.706C3.27676 129.666 9.94728 129.499 4.75172 129.611C-0.443843 129.723 7.76817 129.661 8.69832 129.647C25.6671 129.482 42.7167 130.408 59.5546 132.17C68.0068 133.131 76.3662 134.318 84.7922 135.664C88.6198 136.311 92.5141 137.118 96.3417 137.765C98.1758 138.121 100.076 138.638 102.07 138.928C108.954 140.169 95.4639 137.008 102.07 138.928C117.276 143.057 132.455 147.572 146.919 153.509C153.698 156.292 160.159 159.208 166.753 162.443C168.402 163.252 174.849 165.238 175.74 166.925C175.674 166.765 168.654 162.959 173.055 165.426C174.996 166.487 176.937 167.548 178.785 168.835C191.217 176.183 203.277 184.434 214.674 193.338C220.259 197.743 225.819 202.534 231.152 207.232C234.144 209.912 237.895 213.961 232.681 208.652C235.714 211.877 238.84 214.877 241.873 218.102C251.623 228.442 260.71 239.434 268.814 251.211C270.65 253.814 272.553 256.575 274.23 259.244C279.02 266.228 271.062 253.455 275.215 260.705C279.035 267.158 282.536 273.745 285.944 280.557C288.727 286.321 291.351 292.151 293.655 298.115C295.121 301.621 296.36 305.034 297.506 308.674C297.773 309.311 298.467 312.765 299.052 313.27C297.789 312.487 296.745 305.061 298.479 311.45C301.987 324.773 304.631 338.27 305.867 351.981C306.069 354.704 305.555 358.85 306.461 361.467C306.394 361.308 306.519 352.644 306.338 357.587C306.273 359.673 306.275 361.919 306.211 364.005C306.032 371.194 305.468 378.356 304.677 385.425C304.189 389.186 303.635 392.788 303.08 396.389C302.604 398.834 302.128 401.28 301.652 403.725C301.441 404.562 300.025 410.583 301.322 405.174C302.526 399.99 299.891 410.264 299.401 411.779C298.116 415.873 296.831 419.967 295.48 423.901C292.803 431.385 289.9 438.775 286.545 445.981C284.927 449.277 283.535 452.667 281.692 455.871C280.352 458.49 275.006 467.651 279.357 460.591C270.906 474.418 262.389 488.086 252.449 501.039C242.071 514.735 230.882 527.835 219.267 540.364C218.006 541.827 216.679 543.13 215.258 544.66C215.763 544.075 219.838 539.938 216.267 543.489C213.453 546.163 210.864 548.93 208.116 551.763C201.797 558.147 195.252 564.439 188.641 570.571C164.346 593.079 138.906 614.192 113.534 635.466C62.217 678.437 10.5435 723.243 -29.3742 777.364C-71.2427 833.985 -97.7657 901.791 -97.7094 972.717C-97.677 1046.27 -76.679 1116.69 -47.2332 1183.57C-18.5866 1248.54 17.5777 1309.99 49.6643 1373.34C65.7742 1405.17 80.9277 1437.4 94.2352 1470.59C100.935 1487.07 106.931 1503.66 112.516 1520.61C113.155 1522.59 113.795 1524.57 114.368 1526.39C114.502 1526.71 116.461 1533.19 115.141 1528.69C113.821 1524.18 115.781 1530.66 115.755 1531.05C116.502 1533.73 117.182 1536.26 117.929 1538.94C120.369 1547.47 122.423 1555.97 124.545 1564.63C128.521 1581.31 131.7 1598.33 133.95 1615.36C135.1 1623.49 135.866 1631.6 136.631 1639.7C136.914 1643.52 137.197 1647.33 137.413 1650.98C137.441 1652.84 137.696 1654.8 137.724 1656.66C137.738 1657.59 137.959 1665.73 137.874 1660.15C137.855 1654.73 137.888 1661.08 137.835 1661.85C137.745 1664.32 137.88 1666.89 137.79 1669.36C137.687 1673.14 137.744 1676.86 137.641 1680.65C137.317 1688.84 136.833 1697.09 136.124 1705.25C134.586 1722.18 131.984 1738.8 128.453 1755.44C126.628 1764.07 129.976 1750.12 127.698 1758.56C126.758 1762.14 125.659 1765.78 124.719 1769.36C122.216 1777.7 119.487 1785.96 116.372 1794.19C113.655 1801.12 110.938 1808.06 107.768 1814.82C106.217 1818.27 104.599 1821.57 102.981 1824.87C101.827 1827.03 100.673 1829.2 99.5859 1831.53C101.389 1827.78 101.868 1827.58 99.6787 1831.3C91.5203 1845.38 82.4842 1858.7 72.1849 1871.24C67.9643 1876.38 63.6771 1881.35 59.3233 1886.17C54.9695 1890.98 60.5461 1886.4 60.3987 1885.16C60.4391 1885.7 57.3985 1888.28 56.9869 1888.64C54.3319 1891.25 51.5174 1893.92 48.8624 1896.53C38.6133 1906.05 27.6458 1914.75 16.2526 1922.88C13.6499 1924.72 10.8879 1926.62 8.28517 1928.46C6.50565 1929.58 -2.41815 1935.55 2.12344 1932.53C6.98383 1929.38 -1.50215 1934.61 -2.8035 1935.53C-6.11034 1937.47 -9.41713 1939.41 -12.6312 1941.13C-37.7988 1954.83 -64.1914 1966.05 -91.2903 1975.12C-95.0896 1976.34 -98.7293 1977.48 -102.529 1978.7C-107.284 1980.31 -99.8451 1977.95 -99.6857 1977.88C-101.054 1978.64 -103.007 1978.9 -104.508 1979.34C-112.173 1981.6 -119.745 1983.65 -127.384 1985.53C-141.798 1989.12 -156.186 1992.32 -170.774 1995.05C-200.201 2000.79 -229.75 2004.9 -259.632 2008.22C-288.491 2011.29 -317.523 2013.5 -346.53 2015.32C-369.543 2016.7 -387.149 2044.47 -382.557 2065.76C-377.231 2091.05 -356.609 2103.22 -332.12 2101.78C-210.288 2094.49 -80.3578 2079.69 27.8543 2018.75C85.1743 1986.56 136.343 1942.34 169.667 1884.99C206.148 1822.19 224.628 1750.82 225.155 1678.15C226.865 1525.43 157.911 1388.2 87.3673 1256.12C70.4605 1224.62 54.0317 1192.92 39.1969 1160.56C31.5667 1144.09 24.5739 1127.35 18.126 1110.58C15.1149 1102.48 12.1038 1094.38 9.47806 1086.3C8.83826 1084.32 5.02595 1072.06 7.49223 1080.2C6.23887 1075.86 4.91893 1071.36 3.66557 1067.01C-0.922053 1050.21 -4.48672 1033.17 -6.80246 1015.98C-7.95321 1007.84 -8.78518 999.581 -9.23178 991.344C-9.2602 989.484 -9.35525 987.464 -9.54304 985.67C-9.50262 986.215 -9.42939 993.111 -9.54078 987.916C-9.58557 982.88 -9.63043 977.845 -9.51585 972.742C-8.88173 955.442 -6.41353 938.498 -3.1745 921.607C-4.62863 929.328 -3.05547 920.996 -2.07512 917.965C-0.856796 913.712 0.428178 909.618 1.87247 905.458C4.50893 897.43 7.59733 889.587 11.0712 881.77C12.5297 878.54 14.1476 875.243 15.6062 872.013C16.6007 869.912 22.5298 859.011 17.6881 867.586C21.7471 860.274 26.1914 852.988 30.769 846.021C39.4863 832.831 49.0149 820.238 59.288 808.082C64.4245 802.005 69.7871 796.02 75.1496 790.035C76.4772 788.731 77.7381 787.268 78.9063 786.031C73.2249 792.15 77.7381 787.268 78.9063 786.031C81.9063 782.906 85.0657 779.713 88.1324 776.747C100.173 764.789 112.639 753.402 125.332 742.108C178.571 694.776 235.083 651.692 284.371 599.834C334.323 547.323 373.915 486.599 389.312 415.018C402.406 352.263 389.596 284.42 358.049 229.086C326.302 173.275 279.893 125.836 223.719 94.4591C160.393 58.9573 88.4606 41.8405 15.8418 42.7949C-132.546 44.335 -272.238 104.767 -391.694 189.879C-502.453 268.922 -595.967 372.209 -672.636 483.995C-760.664 612.508 -828.8 753.676 -891.726 895.662C-907.013 930.317 -922.234 965.132 -937.295 999.881C-946.47 1020.94 -934.23 1049.33 -912.43 1056.7C-889.048 1064.71 -865.273 1054.4 -855.382 1031.92Z" fill="#8574B3"/>
</g>
</g>
</svg>
