<svg width="32" height="32" viewBox="0 0 32 32" fill="none" xmlns="http://www.w3.org/2000/svg">
<path d="M16.0227 1.3722e-05C24.9595 0.0340924 32.0227 7.30421 31.9999 16.0283C31.9772 24.9797 24.6983 32.034 15.9773 31.9999C7.02913 31.9772 -0.0226564 24.6957 5.4703e-05 15.9829C0.0227658 7.03158 7.30166 -0.0113458 16.0227 1.3722e-05ZM16 23.9914C17.9077 23.9914 19.8155 23.9914 21.7232 23.9914C22.2342 23.9914 22.5181 23.7188 22.5181 23.2076C22.5181 22.7986 22.5181 22.3783 22.4613 21.9694C22.1433 19.7202 20.9624 18.0617 18.9638 17.0053C17.7715 16.3691 16.4883 16.1533 15.1597 16.3464C12.9113 16.6645 11.2647 17.8459 10.186 19.8338C9.6409 20.8448 9.4365 21.9353 9.45921 23.0826C9.47057 23.7415 9.70903 23.9914 10.3563 23.9914C12.2413 23.9914 14.1263 23.9914 16 23.9914ZM16 7.00886C13.7743 7.02022 12.0256 8.80367 12.0369 11.0415C12.0483 13.1771 13.8425 14.9492 15.9886 14.9492C18.2143 14.9492 19.9744 13.1657 19.9744 10.9279C19.9517 8.78095 18.1576 7.00886 16 7.00886Z" fill="#133D67"/>
</svg>
